<svg  xmlns="http://www.w3.org/2000/svg" class="fill-blue-500" width="100" height="100" viewBox="0 0 64 64">
    <path d="M7 10a1 1 0 0 1-1-1V6a1 1 0 0 1 2 0v3a1 1 0 0 1-1 1Zm0 13a1 1 0 0 1-1-1v-3a1 1 0 0 1 2 0v3a1 1 0 0 1-1 1Zm0 9.43a1 1 0 0 1-1-1V28a1 1 0 0 1 2 0v3.43a1 1 0 0 1-1 1Zm0 9.427a1 1 0 0 1-1-1V37.43a1 1 0 0 1 2 0v3.428a1 1 0 0 1-1 1Zm0 9.429a1 1 0 0 1-1-1v-3.429a1 1 0 0 1 2 0v3.43a1 1 0 0 1-1 1Z"/>
    <path d="M61 64H9.001A3.004 3.004 0 0 1 6 61v-4.714a1 1 0 0 1 2 0V61a1.002 1.002 0 0 0 1.001 1H61a1 1 0 0 0 1-1V3a.999.999 0 0 0-1-1H9.922a1 1 0 0 1 0-2H61a2.986 2.986 0 0 1 2.121.878A3.022 3.022 0 0 1 64 3v58a3.003 3.003 0 0 1-3 3Z"/>
    <path d="M11.001 7h-7a1 1 0 0 1-1-1V1a1 1 0 0 1 1-1h7a1 1 0 0 1 1 1v5a1 1 0 0 1-1 1Zm-6-2h5V2h-5Zm3.001 15h-4a1 1 0 0 1-1-1V9a1 1 0 0 1 1-1h4a1 1 0 0 1 1 1v1h2a1 1 0 0 1 1 1v6a1 1 0 0 1-1 1h-2v1a1 1 0 0 1-1 1Zm-3-2h2v-1a1 1 0 0 1 1-1h2v-4h-2a1 1 0 0 1-1-1v-1h-2Z"/>
    <path d="M4 17H1a1 1 0 0 1-1-1v-4a1 1 0 0 1 1-1h3a1 1 0 0 1 1 1v4a1 1 0 0 1-1 1Zm-2-2h1v-2H2Zm2 5H2a1 1 0 0 1 0-2h2a1 1 0 0 1 0 2Zm0-10H2a1 1 0 0 1 0-2h2a1 1 0 0 1 0 2Zm7.003 19h-7a1 1 0 0 1-1-1v-6a1 1 0 0 1 1-1h7a1 1 0 0 1 1 1v6a1 1 0 0 1-1 1Zm-6-2h5v-4h-5Zm5.995 11.429h-9a1 1 0 0 1-1-1v-6a1 1 0 0 1 1-1h9a1 1 0 0 1 1 1v6a1 1 0 0 1-1 1Zm-8-2h7v-4h-7Zm8 11.428h-9a1 1 0 0 1-1-1v-6a1 1 0 0 1 1-1h9a1 1 0 0 1 1 1v6a1 1 0 0 1-1 1Zm-8-2h7v-4h-7Zm8.005 11.429H5.14a1 1 0 0 1-1-1v-6a1 1 0 0 1 1-1h5.862a1 1 0 0 1 1 1v6a1 1 0 0 1-1 1Zm-4.862-2h3.862v-4H6.14Z"/>
    <path d="M5.14 56.286H1a1 1 0 0 1-1-1v-4a1 1 0 0 1 1-1h4.14a1 1 0 0 1 1 1v4a1 1 0 0 1-1 1Zm-3.14-2h2.14v-2H2ZM19 11h-4a1 1 0 0 1-1-1V6a1 1 0 0 1 1-1h4a1 1 0 0 1 1 1v4a1 1 0 0 1-1 1Zm-3-2h2V7h-2Zm3 10h-4a1 1 0 0 1-1-1v-4a1 1 0 0 1 1-1h4a1 1 0 0 1 1 1v4a1 1 0 0 1-1 1Zm-3-2h2v-2h-2Zm3 10h-4a1 1 0 0 1-1-1v-4a1 1 0 0 1 1-1h4a1 1 0 0 1 1 1v4a1 1 0 0 1-1 1Zm-3-2h2v-2h-2Zm23.004 6h-16a1 1 0 0 1-1-1V14a1 1 0 0 1 1-1h16a1 1 0 0 1 1 1v16a1 1 0 0 1-1 1Zm-15-2h14V15h-14ZM27 11h-4a1 1 0 0 1-1-1V6a1 1 0 0 1 1-1h4a1 1 0 0 1 1 1v4a1 1 0 0 1-1 1Zm-3-2h2V7h-2Zm11 2h-4a1 1 0 0 1-1-1V6a1 1 0 0 1 1-1h4a1 1 0 0 1 1 1v4a1 1 0 0 1-1 1Zm-3-2h2V7h-2Zm28.001 29h-4a1 1 0 0 1-1-1V19a1 1 0 0 1 1-1h4a1 1 0 0 1 1 1v18a1 1 0 0 1-1 1Zm-3-2h2V20h-2Zm3 12h-4a1 1 0 0 1-1-1v-6a1 1 0 0 1 1-1h4a1 1 0 0 1 1 1v6a1 1 0 0 1-1 1Zm-3-2h2v-4h-2Zm3 12h-4a1 1 0 0 1-1-1v-6a1 1 0 0 1 1-1h4a1 1 0 0 1 1 1v6a1 1 0 0 1-1 1Zm-3-2h2v-4h-2Zm-4.999 5h-9a1 1 0 0 1-1-1v-4a1 1 0 0 1 1-1h9a1 1 0 0 1 1 1v4a1 1 0 0 1-1 1Zm-8-2h7v-2h-7Zm8.999-21h-4a1 1 0 0 1-1-1V7a1 1 0 0 1 1-1h4a1 1 0 0 1 1 1v30a1 1 0 0 1-1 1Zm-3-2h2V8h-2Zm-3.999 2h-4a1 1 0 0 1-1-1V7a1 1 0 0 1 1-1h4a1 1 0 0 1 1 1v30a1 1 0 0 1-1 1Zm-3-2h2V8h-2Zm5.999 13h-32a1 1 0 0 1-1-1v-4a1 1 0 0 1 1-1h32a1 1 0 0 1 1 1v4a1 1 0 0 1-1 1Zm-31-2h30v-2h-30Z"/>
    <path d="M60 26h-4a1 1 0 0 1 0-2h4a1 1 0 0 1 0 2Zm0 6h-4a1 1 0 0 1 0-2h4a1 1 0 0 1 0 2ZM46 13h-4a1 1 0 0 1 0-2h4a1 1 0 0 1 0 2Zm-1.999 36a1 1 0 0 1-1-1v-4a1 1 0 0 1 2 0v4a1 1 0 0 1-1 1Zm9-36h-4a1 1 0 0 1 0-2h4a1 1 0 0 1 0 2ZM46 33h-4a1 1 0 0 1 0-2h4a1 1 0 0 1 0 2Zm7.001 0h-4a1 1 0 0 1 0-2h4a1 1 0 0 1 0 2ZM51 39.999a1 1 0 0 1-1-1v-2a1 1 0 0 1 2 0v2a1 1 0 0 1-1 1ZM51 8a1 1 0 0 1-1-1V5a1 1 0 0 1 2 0v2a1 1 0 0 1-1 1Zm-7 31.999a1 1 0 0 1-1-1v-2a1 1 0 0 1 2 0v2a1 1 0 0 1-1 1ZM17.001 47h-2a1 1 0 1 1 0-2h2a1 1 0 0 1 0 2ZM44 8a1 1 0 0 1-1-1V5a1 1 0 0 1 2 0v2a1 1 0 0 1-1 1Zm7 39h-2a1 1 0 0 1 0-2h2a1 1 0 0 1 0 2Zm-3.498 14a1 1 0 0 1-1-1v-4a1 1 0 0 1 2 0v4a1 1 0 0 1-1 1ZM18 56.999a3 3 0 1 1 3-3 3.003 3.003 0 0 1-3 3Zm0-4a1 1 0 1 0 1 1 1 1 0 0 0-1-1Z"/>
    <path d="M18 61a3 3 0 1 1 3-3 3.003 3.003 0 0 1-3 3Zm0-4a1 1 0 1 0 1 1 1 1 0 0 0-1-1Z"/>
    <path d="M22.001 56.999a3 3 0 1 1 3-3 3.003 3.003 0 0 1-3 3Zm0-4a1 1 0 1 0 1 1 1 1 0 0 0-1-1ZM17.503 42a4.5 4.5 0 1 1 4.5-4.5 4.505 4.505 0 0 1-4.5 4.5Zm0-7a2.5 2.5 0 1 0 2.5 2.5 2.502 2.502 0 0 0-2.5-2.5Z"/>
    <path d="M22.001 61a3 3 0 1 1 3-3 3.003 3.003 0 0 1-3 3Zm0-4a1 1 0 1 0 1 1 1 1 0 0 0-1-1ZM40 60.999h-9a1 1 0 0 1-1-1v-8a1 1 0 0 1 1-1h9a1 1 0 0 1 1 1v8a1 1 0 0 1-1 1Zm-8-2h7v-6h-7ZM39 34H23a4.001 4.001 0 0 1-4-4v-1a1 1 0 0 1 2 0v1a2.012 2.012 0 0 0 .586 1.414A1.985 1.985 0 0 0 23 32h16a1 1 0 0 1 0 2Z"/>
    <path d="M27.001 35a1 1 0 0 1-1-1v-4a1 1 0 0 1 2 0v4a1 1 0 0 1-1 1Zm8 0a1 1 0 0 1-1-1v-4a1 1 0 0 1 2 0v4a1 1 0 0 1-1 1ZM36 28H26a1 1 0 0 1-1-1v-2a1 1 0 0 1 .105-.447L26 22.764v-.528l-.895-1.789A1 1 0 0 1 25 20v-3a1 1 0 0 1 1-1h10a1 1 0 0 1 1 1v3a1 1 0 0 1-.105.447L36 22.236v.528l.895 1.789A1 1 0 0 1 37 25v2a1 1 0 0 1-1 1Zm-9-2h8v-.764l-.895-1.789A1 1 0 0 1 34 23v-1a1 1 0 0 1 .105-.447L35 19.764V18h-8v1.764l.895 1.789A1 1 0 0 1 28 22v1a1 1 0 0 1-.105.447L27 25.236Zm9.001 14h-9a1 1 0 0 1 0-2h9a1 1 0 0 1 0 2ZM60.02 5a1 1 0 0 1-.01-2h.01a1 1 0 0 1 0 2Zm0 56a1 1 0 0 1-.01-2h.01a1 1 0 0 1 0 2Zm-50 0a1 1 0 0 1-.01-2h.01a1 1 0 1 1 0 2Zm14-21a1 1 0 0 1-.01-2h.01a1 1 0 0 1 0 2Zm15 0a1 1 0 0 1-.01-2h.01a1 1 0 0 1 0 2Z"/>
</svg>
