          <svg
            class=""
            width="1920"
            height="1080"
            viewBox="0 0 1920 1080"
            fill="none"
            xmlns="http://www.w3.org/2000/svg"

          >
            <g clip-path="url(#clip0_1_2)">
              <path
                d="M1210.6 1C1191.27 44.5894 1164.06 81.698 1122.02 106.719C1108.19 114.954 1095.82 125.608 1082.5 134.757C1061.66 149.077 1038.23 157.948 1014.26 165.16C947.383 185.287 884.417 214.562 823.183 247.537C783.502 268.906 748.25 296.68 717.849 330.158C701.964 347.651 689.704 367.645 684.302 390.791C678.897 413.955 687.378 436.921 714.534 443.959C730.707 448.15 747.564 450.262 764.253 451.788C796.384 454.726 827.885 460.752 857.119 474.22C910.683 498.896 940.58 540.887 944.011 600.496C945.976 634.644 939.953 667.06 923.509 697.473C912.884 717.122 906.078 738.183 904.511 760.684C901.832 799.159 915.37 829.461 949.298 849.468C985.075 870.567 1023.22 880.309 1064.75 873.079C1095.23 867.773 1122.14 854.365 1147.25 836.645C1174.55 817.38 1193.78 791.281 1211.61 763.681C1238.65 721.838 1265.52 679.854 1296.42 640.674C1312.13 620.76 1328.54 601.451 1348.22 585.273C1370.63 566.849 1396.74 554.935 1423.23 543.916C1465.28 526.426 1509.71 518.524 1554.47 511.907C1580.5 508.059 1606.57 504.126 1632.28 498.609C1667.5 491.05 1698.83 475.297 1724.36 449.246C1744.71 428.478 1758.77 403.659 1770.86 377.472C1784.38 348.214 1789.48 317.134 1791.92 285.421C1794.75 248.556 1796.1 211.538 1805.05 175.386C1811.21 150.483 1817.38 125.567 1822.79 100.494C1829.83 67.8704 1833.17 34.9948 1825.96 1.42713C1826.75 1 1827.5 1 1828.62 1C1829.38 4.42048 1829.6 7.86493 1830.15 11.2576C1834.36 37.2827 1832.66 63.2035 1827.45 88.7868C1821.86 116.201 1815.33 143.436 1808.67 170.614C1801.16 201.19 1797.88 232.27 1795.95 263.585C1794.27 290.871 1792.86 318.312 1785.08 344.681C1771.59 390.379 1750.03 431.473 1713.04 462.893C1689.94 482.515 1662.91 494.843 1633.5 500.816C1601.69 507.278 1569.52 512.082 1537.41 516.96C1485.34 524.87 1435.22 538.497 1388.03 562.669C1357.83 578.139 1333.5 599.995 1311.94 625.57C1280.49 662.869 1253.95 703.654 1227.1 744.246C1213.5 764.804 1201.01 786.469 1184.89 804.906C1147.83 847.316 1101.71 874.912 1044.07 877.541C1000.16 879.544 961.073 865.102 927.889 836.058C909.658 820.102 903.156 798.607 901.947 775.221C900.4 745.294 910.319 718.392 923.302 691.991C946.679 644.453 949.827 595.169 928.535 546.505C912.472 509.791 883.115 485.509 845.238 471.861C814.091 460.638 781.858 455.234 748.942 452.927C734.985 451.949 721.214 449.644 707.982 444.488C683.95 435.124 676.688 410.846 681.813 390.3C687.906 365.872 700.695 344.767 717.79 326.518C753.464 288.436 794.871 257.801 841.641 234.761C881.237 215.255 920.634 195.177 962.289 180.235C985.338 171.967 1008.69 164.543 1031.84 156.561C1055.82 148.294 1077.71 136.343 1097.79 120.639C1113.65 108.236 1131.01 97.765 1147.04 85.5572C1169.76 68.243 1185.24 44.8985 1198.59 20.0625C1201.81 14.0798 1204.51 7.81796 1207.22 1.34225C1208.07 1 1209.13 1 1210.6 1Z"
                fill="#E6ECEC"
              />
              <path
                d="M1244.6 1C1234.69 20.9697 1224.96 41.2606 1213.92 60.8168C1203.33 79.5856 1188.55 94.9818 1171.17 107.825C1156.83 118.418 1142.57 129.103 1128.32 139.802C1107.2 155.653 1083.08 165.334 1058.17 172.971C999.139 191.067 943.015 216.019 888.767 245.121C854.235 263.646 823.421 287.609 796.504 316.229C782.319 331.311 771.582 348.651 765.045 368.482C758.052 389.692 767.368 410.457 788.69 416.93C802.286 421.058 816.627 423.122 830.785 424.922C855.799 428.102 880.117 433.974 902.665 445.047C945.452 466.058 970.45 500.578 975.954 548.184C980.042 583.539 974.986 617.475 958.721 649.67C953.371 660.261 949.901 671.973 946.845 683.51C942.881 698.476 942.895 713.777 945.835 729.1C950.749 754.705 966.79 771.406 989.015 782.742C1036.59 807.011 1084.51 806.248 1132.31 783.241C1169.16 765.507 1198.57 739.228 1222.24 705.912C1245.97 672.508 1270.22 639.457 1295.06 606.872C1312.25 584.332 1331.45 563.488 1353.9 545.867C1371.16 532.322 1391.03 523.695 1410.9 515.092C1451.81 497.378 1495.17 489.324 1538.96 482.916C1567.13 478.794 1595.42 475.286 1622.89 467.274C1668.32 454.028 1701.44 425.923 1724.79 385.107C1743.91 351.676 1754.03 315.803 1755.7 277.602C1757.77 230.259 1765.98 184.029 1777.33 138.105C1782.38 117.67 1785.08 96.5244 1787.24 75.5359C1789.86 50.052 1784.28 25.4946 1774.99 1.3839C1775.75 1.00001 1776.5 1.00001 1777.62 1.00001C1778.1 1.96753 1777.99 3.02244 1778.34 3.8899C1791.77 37.1244 1792.97 71.4404 1786.44 106.133C1782.03 129.533 1776.76 152.795 1771.08 175.925C1762.57 210.622 1760.27 246.029 1758.02 281.445C1755.35 323.443 1742.82 362.061 1720.12 397.502C1695.04 436.663 1659.72 461.677 1614.68 471.865C1586.29 478.288 1557.34 482.316 1528.56 486.915C1490.64 492.975 1453.42 501.227 1417.31 514.884C1373.85 531.316 1338.46 557.858 1309 593.437C1280.05 628.404 1253.96 665.452 1227.75 702.417C1212.03 724.572 1194.72 745.094 1172.78 761.398C1143.1 783.451 1110.87 799.493 1073.41 802.392C1034.15 805.431 998.326 795.821 967.274 771C952.754 759.393 945.61 743.418 942.68 725.41C939.129 703.583 942.679 682.547 950.589 662.186C954.264 652.727 959.295 643.787 962.84 634.287C978.269 592.941 980.741 551.051 963.124 510.001C949.256 477.684 924.57 455.453 891.485 442.729C867.809 433.625 843.303 428.624 818.17 425.814C808.131 424.692 798.057 422.592 788.393 419.644C761.635 411.48 756.838 386.263 762.953 367.192C772.04 338.848 790.42 316.907 812.042 297.254C850.335 262.448 894.488 237.258 941.399 215.957C980.469 198.216 1020.1 182.307 1061.03 169.473C1089.56 160.529 1116.06 147.761 1139.19 128.229C1152.53 116.963 1167.55 107.684 1180.96 96.4979C1201.71 79.1944 1215.27 56.3499 1227.13 32.4853C1232.16 22.3618 1236.65 11.9686 1241.19 1.34905C1242.07 1.00001 1243.13 1.00001 1244.6 1Z"
                fill="#E6ECEC"
              />
              <path
                d="M1280.6 1.00001C1270.06 22.3195 1259.08 43.6247 1248.18 64.9621C1235.76 89.2535 1218.92 109.761 1196.9 126.038C1183.64 135.836 1171.16 146.724 1157.63 156.109C1138.23 169.564 1115.85 176.731 1093.56 183.625C1047.22 197.959 1003.04 217.459 960.024 239.545C928.119 255.927 899.567 277.327 874.445 303.02C862.232 315.51 852.645 329.876 846.142 346.229C837.968 366.783 846.176 385.659 867.273 391.76C881.149 395.773 895.681 397.459 909.708 401.02C929.024 405.924 947.777 412.746 963.665 425.125C993.978 448.743 1008.64 480.402 1010.05 518.57C1011.11 547.53 1006.42 575.226 993.924 601.624C986.577 617.14 983.02 633.74 983.404 651.072C984.102 682.609 999.829 703.712 1028.39 715.753C1061.73 729.811 1095.71 729.617 1129.55 718.358C1172.36 704.119 1206.69 677.457 1235.15 642.988C1257.01 616.522 1278.1 589.419 1300.14 563.111C1317.92 541.883 1337.17 522.013 1360 505.968C1377.37 493.757 1397.05 486.374 1416.65 478.847C1453.17 464.818 1491.56 458.969 1529.93 452.85C1552.77 449.208 1575.73 445.504 1598.07 439.69C1644.14 427.705 1675.91 398.052 1697.32 356.094C1709.73 331.772 1717.35 306.172 1718.66 279.116C1720.98 231.442 1729.76 184.903 1740.31 138.532C1745.24 116.852 1747.25 94.7458 1744.32 72.4871C1741.05 47.7189 1731.68 25.3124 1717.75 4.70491C1717.1 3.7455 1716.56 2.71316 1715.99 1.3574C1716.75 1.00001 1717.5 1 1718.62 1C1723.29 8.66585 1727.86 16.1879 1731.81 24.0243C1744.16 48.5123 1749.42 74.4713 1747.75 101.904C1746.39 124.133 1742.13 145.874 1736.74 167.362C1728.14 201.624 1723.85 236.435 1721.99 271.608C1719.62 316.571 1705.05 356.984 1676.84 392.197C1657.48 416.353 1632.31 431.98 1602.92 441.085C1575.73 449.51 1547.56 452.901 1519.55 456.963C1472.99 463.716 1427.67 474.478 1384.82 494.619C1364.09 504.363 1346.65 518.274 1330.52 534.06C1302.33 561.639 1278.17 592.703 1253.97 623.693C1235.87 646.864 1217.02 669.207 1193.25 686.943C1165.44 707.691 1135.35 723.183 1100.46 727.491C1068.39 731.45 1038.01 726.699 1010.49 708.631C990.673 695.62 982.386 676.373 981.043 653.563C979.816 632.73 985.969 613.522 994.034 594.597C1011 554.784 1013.73 513.891 997.872 473.412C986.832 445.235 966.046 425.139 937.702 413.114C919.726 405.488 901.006 401.265 881.903 398.021C875.372 396.912 868.823 395.211 862.652 392.826C844.108 385.659 835.88 366.338 842.925 347.633C849.607 329.893 859.765 314.323 873.037 300.922C906.761 266.87 946.421 241.685 989.928 221.868C1029.42 203.88 1069.73 188.271 1111.06 175.109C1135.09 167.456 1157.15 156.035 1176.16 139.053C1183.35 132.631 1191.27 127.014 1198.97 121.174C1217.04 107.46 1231.57 90.6246 1242.14 70.63C1254.19 47.8334 1265.59 24.6921 1277.14 1.35035C1278.07 1 1279.13 1.00001 1280.6 1.00001Z"
                fill="#E6ECEC"
              />
              <path
                d="M1321.58 1.00001C1319.31 4.17017 1316.68 7.39412 1313.92 10.5012C1301.25 24.7566 1292.28 41.1811 1285 58.6987C1276.1 80.1343 1266.49 101.332 1250.69 118.722C1242.43 127.806 1232.83 135.663 1223.89 144.13C1204.51 162.476 1182.73 176.828 1157.1 184.963C1144.71 188.894 1132.34 192.881 1120.07 197.145C1081.45 210.564 1043.58 225.883 1008.39 246.833C985.318 260.57 963.379 276.332 945.945 297.075C938.106 306.401 930.876 316.858 926.078 327.971C919.485 343.245 923.477 359.299 941.147 365.468C947.27 367.606 953.566 369.271 959.833 370.965C978.435 375.991 995.796 383.677 1009.77 397.148C1031.47 418.055 1041.7 444.21 1042.93 474.111C1044.01 500.575 1040.76 526.255 1030.32 550.881C1024.95 563.567 1022.29 576.959 1022.76 590.86C1023.71 619.26 1039 639.344 1066.07 647.961C1095.93 657.466 1125.13 653.425 1153.77 643.172C1191.82 629.547 1222.66 605.043 1250.38 576.427C1269.85 556.327 1288.19 535.131 1307.66 515.028C1329.02 492.963 1351.26 471.604 1379.78 458.821C1405.99 447.071 1433.3 438.224 1461.59 433.015C1491.08 427.585 1520.73 423.031 1550.27 417.901C1567.9 414.841 1585.03 410.041 1601.18 402.111C1630.72 387.607 1650.72 364.097 1665.39 335.214C1675.77 314.778 1681.29 293.085 1682.69 270.471C1684.93 234.105 1690.47 198.307 1698.29 162.763C1702.71 142.687 1705.11 122.261 1702.48 101.698C1698.16 67.8843 1681.88 40.1491 1657.82 16.635C1652.48 11.407 1646.67 6.64428 1641.04 1.33367C1642.39 0.999994 1643.78 0.999994 1645.58 1C1647.19 2.59063 1648.14 4.46633 1649.62 5.72927C1672.6 25.4198 1690.22 48.769 1699.77 77.8331C1707.97 102.816 1707.01 128.107 1702.52 153.468C1698.46 176.433 1693.19 199.204 1689.78 222.257C1686.86 242.007 1686.41 262.11 1683.84 281.925C1678.26 324.955 1659.68 361.374 1626.02 389.262C1606.17 405.711 1582.5 414.341 1557.45 418.929C1527.63 424.39 1497.64 428.904 1467.79 434.217C1438.96 439.347 1411.19 448.215 1384.22 459.503C1359.46 469.866 1339.25 486.881 1320.73 505.689C1297.6 529.19 1275.66 553.876 1252.74 577.592C1224.81 606.482 1193.76 631.213 1155.47 645.201C1129.24 654.789 1102.31 659.102 1074.49 652.909C1063.63 650.492 1053.48 646.314 1044.48 639.745C1024.48 625.139 1018.31 604.361 1020.82 581.075C1022.13 568.837 1025.93 556.653 1030.09 544.976C1042.03 511.493 1044.94 477.501 1035.11 443.34C1027.21 415.907 1010.3 394.829 983.782 382.717C975.343 378.863 966.403 376.075 957.609 373.039C952.262 371.194 946.65 370.103 941.342 368.165C922.685 361.35 915.589 343.691 923.95 325.57C932.79 306.411 946.399 291.076 962.097 277.326C996.055 247.583 1035.49 227.313 1077.13 210.96C1096.8 203.231 1116.53 195.418 1136.74 189.312C1169.49 179.416 1198.24 163.767 1224.35 141.16C1250.78 118.271 1269.42 91.0952 1282.13 59.1718C1290.09 39.159 1300.7 20.8166 1315.45 4.98422C1316.31 4.05494 1316.79 2.76435 1317.22 1.32096C1318.39 0.999994 1319.78 0.999994 1321.58 1.00001Z"
                fill="#E6ECEC"
              />
              <path
                d="M1412.53 1C1401.66 3.60936 1390.12 5.58465 1379 8.9496C1348.34 18.2315 1326.62 37.8654 1313.85 67.2939C1307.74 81.3497 1301.99 95.5639 1295.52 109.451C1289.22 122.997 1280.55 135.051 1269.82 145.496C1255.87 159.071 1243.07 174.374 1224.89 182.441C1208.96 189.515 1192.41 195.344 1175.81 200.73C1142.77 211.449 1110.3 223.572 1080.05 240.722C1056.36 254.153 1034.05 269.744 1016.75 291.294C1011.17 298.256 1005.31 305.25 1003.8 314.601C1001.58 328.434 1005.06 334.816 1017.55 341.172C1025.82 345.385 1034.43 349.392 1041.72 355.013C1062.17 370.791 1071.72 392.978 1074.78 417.89C1078.18 445.661 1075.88 473.064 1066.7 499.762C1061.92 513.663 1060 528.051 1063.57 542.573C1068.73 563.548 1082.89 575.411 1103.41 580.15C1123.52 584.795 1142.75 580.055 1161.85 574.174C1194.18 564.219 1221.72 545.934 1247.21 524.406C1269.1 505.922 1290.2 486.513 1311.96 467.872C1335.17 447.983 1359.06 428.965 1388.71 419.224C1418.21 409.531 1448.4 402.819 1479.07 397.836C1504.69 393.673 1530.48 389.573 1555.48 382.839C1589.92 373.566 1614.3 350.904 1630.87 319.427C1640.31 301.518 1645.26 282.484 1646.61 262.525C1648.58 233.366 1653.27 204.63 1658.39 175.908C1662.28 154.088 1663.39 132.18 1656.35 110.616C1646.64 80.878 1627.35 58.5425 1602.26 40.7179C1578.84 24.0773 1552.15 15.2937 1524.51 9.14819C1509.74 5.86229 1494.7 3.75959 1479.39 1.06144C1487.69 0.999996 1496.38 0.999996 1505.53 1C1508.02 1.95604 1509.94 3.36864 1512.06 3.79807C1535.48 8.53628 1558.56 14.4932 1580.14 24.9664C1610.93 39.9188 1635.54 61.6398 1651.56 92.383C1664.45 117.122 1666.43 143.436 1661.71 170.272C1655.7 204.427 1651.33 238.739 1647.72 273.223C1644.12 307.542 1628.37 336.389 1603.05 359.677C1586.49 374.903 1566.42 384.232 1544.61 388.719C1517.86 394.221 1490.83 398.321 1463.9 402.925C1436.41 407.626 1409.36 414.221 1383.23 423.892C1356.22 433.887 1334.25 452.016 1312.7 470.494C1288.55 491.203 1264.91 512.522 1240.48 532.889C1213.14 555.68 1182.49 572.501 1147.56 580.806C1130.61 584.834 1113.68 586.363 1096.76 580.877C1073.9 573.469 1060.14 554.847 1059.44 530.712C1059.1 518.88 1061.59 507.592 1065.16 496.396C1074.71 466.418 1077.14 435.768 1069.84 405.162C1063.4 378.143 1048.27 357.004 1021.71 345.701C1020.48 345.18 1019.3 344.549 1018.06 344.08C996.94 336.111 997.73 317.022 1005.39 303.452C1016.2 284.298 1032.56 270.453 1049.78 257.359C1079.77 234.557 1114.05 220.272 1148.91 207.289C1168.88 199.854 1189.41 193.948 1209.5 186.827C1224.57 181.482 1238.06 173.249 1249.36 161.737C1259.27 151.641 1269.81 142.066 1278.86 131.247C1291.94 115.601 1299.48 96.7229 1306.73 77.8657C1313.18 61.0801 1321.29 45.3796 1334.18 32.4514C1349.13 17.457 1367.51 9.00454 1387.6 3.62083C1389.67 3.06566 1391.7 2.35641 1393.88 1.35933C1400.02 0.999996 1406.04 0.999996 1412.53 1Z"
                fill="#E6ECEC"
              />
              <path
                d="M621.375 1081C616.803 1063.69 612.877 1046.31 608.343 1029.08C601.932 1004.73 595.828 980.338 593.576 955.17C591.555 932.584 592.292 910.197 599.201 888.369C609.569 855.612 631.472 832.998 661.697 817.829C687.089 805.085 714.579 798.856 741.852 791.8C767.308 785.215 792.776 778.47 817.753 770.306C838.179 763.63 856.391 752.384 871.667 736.877C893.258 714.962 903.608 688.172 903.809 657.886C904.201 598.705 878.447 553.065 829.482 520.466C794.842 497.405 755.914 486.512 714.977 481.988C679.529 478.07 644.081 479.856 608.658 482.549C564.479 485.908 520.439 491.455 476.013 490.861C431.109 490.259 387.145 484.345 346.307 464.514C330.806 456.987 316.381 447.139 301.836 437.774C280.979 424.344 261.092 409.281 239.599 397.003C222.186 387.056 202.896 380.438 184.65 371.894C154.105 357.592 122.677 345.828 90.302 336.301C58.668 326.991 34.2104 307.051 13.9562 281.537C9.95627 276.498 5.77186 271.606 1.33627 266.823C0.999996 265.286 0.999996 263.571 1 261.428C4.3959 265.269 7.8756 269.473 11.1732 273.817C25.3888 292.54 41.1625 309.739 62.1125 320.985C72.9084 326.78 84.239 332.202 95.9716 335.51C127.538 344.41 157.648 356.813 187.377 370.4C201.008 376.63 214.95 382.176 228.62 388.326C250.329 398.092 269.379 412.186 288.895 425.562C305.368 436.853 321.808 448.348 339.168 458.149C363.92 472.123 391.135 479.472 419.151 483.85C456.595 489.702 494.191 489.13 531.825 486.487C580.002 483.103 627.998 476.814 676.416 477.291C719.133 477.711 760.779 483.936 800.081 501.585C836.545 517.959 867.268 541.366 886.422 577.266C907.87 617.464 913.97 659.47 897.008 702.998C887.303 727.904 869.345 745.837 846.697 759.357C823.819 773.015 798.562 780.366 773.024 786.964C746.097 793.92 719.028 800.394 692.324 808.124C671.727 814.086 652.548 823.514 635.972 837.495C610.86 858.676 598.713 886.327 595.808 918.552C593.231 947.149 597.596 975.074 604.243 1002.71C610.474 1028.62 617.201 1054.41 623.855 1080.62C623.25 1081 622.5 1081 621.375 1081Z"
                fill="#E6ECEC"
              />
              <path
                d="M106.6 1C105.804 2.54111 104.737 4.20537 103.394 5.60524C72.9497 37.3392 49.6517 73.3254 40.6464 116.897C30.8435 164.329 38.8522 208.747 67.316 248.599C86.5022 275.462 113.216 291.622 144.93 298.736C169.596 304.27 194.739 307.701 219.701 311.881C240.939 315.438 261.969 319.624 281.868 328.286C304.173 337.995 324.467 351.017 343.756 365.659C369.1 384.896 393.823 404.983 419.65 423.541C444.315 441.264 471.414 454.434 501.602 460.268C536.625 467.036 568.398 459.454 597.152 438.609C622.528 420.213 641.475 396.024 658.685 370.264C672.659 349.349 686.292 328.19 700.81 307.658C721.672 278.154 748.696 255.048 778.729 235.303C817.24 209.983 859.367 191.979 901.772 174.542C941.985 158.006 982.612 142.389 1021.18 122.133C1040.79 111.831 1060.5 101.53 1077.55 87.1356C1099.61 68.5148 1115.07 44.9215 1127.49 19.1747C1130.24 13.4837 1132.48 7.55199 1134.98 1.36556C1135.75 1 1136.5 1 1137.62 1C1126.39 30.8023 1110.66 58.0167 1088.06 80.9656C1074.8 94.4286 1058.79 104.003 1042.6 113.314C1000.14 137.736 954.68 155.594 909.5 174.06C872.015 189.382 834.729 205.101 799.531 225.349C755.509 250.673 718.397 283.322 690.457 326.111C674.797 350.095 658.992 374.027 642.174 397.199C627.817 416.98 610.272 433.828 589.255 446.809C558.364 465.889 525.415 469.424 490.719 460.36C459.237 452.137 431.56 436.255 405.782 416.989C383.769 400.536 362.559 383.013 340.62 366.459C313.318 345.858 284.38 327.974 250.444 320.599C230.287 316.218 209.735 313.686 189.438 309.91C171.773 306.623 153.913 303.826 136.669 298.941C89.9747 285.712 59.7832 254.525 43.992 209.27C27.3352 161.534 32.4138 115.11 54.3272 70.1051C66.1033 45.9198 81.8569 24.5362 100.435 5.1655C101.455 4.10202 102.283 2.85457 103.1 1.34638C104.067 1 105.133 1 106.6 1Z"
                fill="#E6ECEC"
              />
              <path
                d="M585.375 1081C583.806 1055.36 577.161 1030.71 571.774 1005.8C567.099 984.176 562.665 962.429 559.758 940.522C557.117 920.624 558.604 900.635 564.606 881.174C573.712 851.647 593.206 831.33 620.305 817.682C642.213 806.649 665.817 800.72 689.472 794.961C715.366 788.657 741.456 782.975 765.949 772.011C786.227 762.934 804.093 750.615 816.603 731.882C834.282 705.406 837.585 676.135 831.456 645.578C822.149 599.18 794.309 566.78 753.403 544.849C717.345 525.517 678.272 517.305 637.788 517.624C601.675 517.909 565.562 520.352 529.488 522.5C499.858 524.264 470.261 525.983 440.596 523.908C394.181 520.663 350.948 508.163 312.427 480.958C293.397 467.519 274.053 454.328 253.803 442.877C237.788 433.822 220.108 427.74 203.286 420.076C178.381 408.729 153.022 398.759 126.484 391.767C90.7346 382.347 64.0063 359.991 41.7994 331.378C29.9513 316.111 17.9047 300.998 5.89394 285.859C4.67978 284.328 3.0939 283.093 1.34026 281.86C0.999997 280.611 0.999997 279.222 1 277.417C7.67421 284.838 14.4706 292.576 20.9968 300.536C33.879 316.248 46.1493 332.487 59.5205 347.765C77.1743 367.938 99.3444 381.827 125.219 388.679C157.784 397.302 188.059 411.557 219.112 424.055C250.813 436.813 279.872 453.713 306.984 474.118C353.038 508.779 405.661 522.582 462.204 521.992C500.314 521.595 538.403 518.58 576.486 516.454C616.989 514.193 657.422 512.712 697.412 521.809C730.907 529.428 762.154 542.151 787.713 565.601C829.464 603.907 846.02 650.88 831.244 706.535C823.224 736.741 801.897 756.595 774.703 770.542C752.108 782.13 727.66 788.158 703.211 794.178C678.468 800.27 653.507 805.624 629.988 815.867C610.555 824.329 593.463 835.864 580.96 853.333C567.058 872.756 561.956 894.919 561.321 918.353C560.549 946.799 566.331 974.337 573.143 1001.73C579.579 1027.6 585.872 1053.51 587.801 1080.63C587.25 1081 586.5 1081 585.375 1081Z"
                fill="#E6ECEC"
              />
              <path
                d="M539.375 1081C544.026 1064.26 544.807 1047.02 542.304 1030.02C538.498 1004.17 533.018 978.573 528.555 952.816C524.321 928.387 522.394 903.91 528.331 879.391C534.993 851.878 551.583 832.336 576.162 819.111C599.185 806.724 624.505 801.272 649.525 794.924C669.231 789.923 688.852 784.759 707.378 776.034C757.985 752.199 772.325 707.204 760.357 659.881C751.119 623.354 727.747 597.885 695.541 579.966C658.756 559.497 618.591 553.527 577.239 554.51C543.103 555.321 509.005 557.614 474.875 558.813C447.502 559.774 420.214 558.381 393.318 552.753C366.927 547.231 341.976 537.684 320.304 521.556C287.087 496.837 250.348 479.031 212.055 464.149C195.01 457.524 177.742 451.15 160.098 446.459C126.688 437.577 100.731 418.301 78.1526 392.925C57.7889 370.039 36.4905 347.978 15.3801 325.766C11.3313 321.506 6.24069 318.236 1.31535 314.755C0.999998 313.611 0.999998 312.222 1 310.417C12.8099 320.994 25.166 331.466 36.3048 343.103C54.0378 361.628 70.9758 380.916 88.2205 399.908C108.634 422.39 133.508 437.333 163.077 444.425C187.188 450.209 209.466 460.889 232.38 469.971C262.024 481.719 289.709 496.662 315.374 515.479C352.286 542.543 394.277 554.766 439.404 555.693C469.672 556.315 500.009 554.775 530.284 553.494C564.265 552.056 598.22 550.051 632.002 555.79C660.934 560.705 687.976 570.479 712.219 587.417C758.661 619.867 773.302 671.972 764.213 712.911C758.839 737.115 745.07 755.432 724.688 769.058C703.522 783.207 679.321 789.492 655.191 796.146C632.899 802.293 610.416 808.112 588.756 816.084C566.126 824.413 547.874 839.173 537.241 861.625C528.397 880.3 525.409 900.311 527.525 920.62C529.626 940.783 533.611 960.747 536.679 980.812C539.746 1000.88 543.821 1020.88 545.302 1041.06C546.249 1053.97 543.289 1067.16 542.04 1080.61C541.25 1081 540.5 1081 539.375 1081Z"
                fill="#E6ECEC"
              />
              <path
                d="M153.583 1C145.238 11.4438 135.814 21.407 127.828 32.4139C91.5107 82.4691 79.9104 137.02 100.904 196.354C117.487 243.219 150.974 271.687 199.575 281.786C218.474 285.712 237.603 288.785 256.762 291.146C298.833 296.33 335.524 313.605 369.056 338.795C391.56 355.701 414.033 372.695 437.229 388.618C456.705 401.987 478.182 411.533 501.563 416.313C533.002 422.739 561.373 415.863 587.065 396.99C607.892 381.69 624.083 362.108 638.754 341.112C654.4 318.722 669.563 295.972 685.871 274.074C706.275 246.676 732.993 226.261 762.104 208.854C799.471 186.511 839.937 170.982 880.306 155.248C918.189 140.484 955.595 124.793 991.85 106.163C1035.52 83.7212 1063.33 48.4598 1080.71 3.69986C1080.95 3.0895 1081 2.40717 1081.07 1.37922C1081.75 1 1082.5 1 1083.62 1C1077.14 21.7554 1066.5 40.4971 1053.8 58.1964C1038.15 80.014 1016.97 94.9322 993.816 107.693C952.36 130.535 908.138 146.945 864.256 164.174C831.669 176.969 799.459 190.521 768.855 207.724C727.809 230.796 694.667 262.029 668.503 301.156C652.869 324.536 636.549 347.518 619.407 369.809C606.954 386.003 591.155 398.973 572.998 408.761C545.712 423.47 517.3 424.219 488.175 415.513C460.471 407.232 436.219 392.431 413.203 375.381C394.193 361.299 375.361 346.976 356.275 333C325.167 310.221 290.131 297.771 251.999 292.909C232.526 290.426 213.031 287.329 193.929 282.87C142.91 270.962 110.841 238.32 95.757 188.878C82.3645 144.979 86.5989 102.301 107.181 61.2327C117.27 41.0997 130.414 23.1768 145.767 6.78818C147.2 5.25763 148.244 3.36111 149.234 1.31725C150.389 1 151.778 1 153.583 1Z"
                fill="#E6ECEC"
              />
              <path
                d="M1 366.375C15.3579 369.481 27.7184 377.07 39.6148 385.353C65.4224 403.321 87.8099 425.263 110.397 446.969C118.918 455.158 127.548 463.271 136.589 470.872C152.446 484.205 171.191 491.675 190.936 497.406C208.01 502.362 224.968 507.958 241.503 514.475C266.581 524.36 291.75 534.209 313.871 550.257C321.808 556.016 330.278 561.086 338.756 566.041C363.129 580.287 389.905 586.535 417.706 589.193C449.171 592.202 480.629 589.888 512.093 589.136C536.259 588.558 560.432 588.437 584.32 592.989C617.725 599.355 647.268 612.997 670.776 638.407C697.96 667.793 705.057 716.573 686.335 749.112C675.333 768.234 658.211 780.409 638.035 787.501C616.553 795.052 594.233 800.185 572.536 807.17C559.436 811.387 546.215 815.973 534.118 822.405C507.729 836.439 495.582 860.037 493.242 889.179C491.491 910.977 494.839 932.369 498.532 953.747C502.106 974.441 505.223 995.16 503.416 1016.33C501.497 1038.81 492.984 1058.48 479.404 1076.21C478.409 1077.51 477.591 1078.94 476.845 1080.66C475.933 1081 474.867 1081 473.4 1081C477.329 1074.73 481.914 1068.62 485.94 1062.17C500.968 1038.07 503.664 1011.51 500.352 984.088C497.876 963.586 494.087 943.245 491.525 922.752C489.068 903.1 489.419 883.482 495.67 864.379C503.961 839.041 521.934 822.662 546.101 813.779C567.153 806.041 589.219 801.106 610.588 794.165C624.637 789.601 639.001 785.075 651.908 778.096C691.599 756.634 699.997 719.979 691.497 683.753C684.369 653.375 665.532 631.689 639.389 615.898C610.288 598.321 578.099 591.861 544.631 591.7C512.813 591.547 480.99 592.748 449.166 593.05C426.435 593.266 403.913 591.147 381.748 585.748C361.275 580.76 342.599 571.93 324.858 560.667C309.124 550.679 293.68 539.762 276.801 532.155C247.397 518.901 217.874 505.62 186.096 498.336C158.433 491.995 136.575 475.642 116.269 456.418C93.5398 434.901 70.1737 414.027 46.4966 393.552C34.8944 383.52 21.4668 375.867 7.01957 370.316C5.32752 369.666 3.52059 369.315 1.38346 368.912C1 368.25 1 367.5 1 366.375Z"
                fill="#E6ECEC"
              />
              <path
                d="M200.583 1C188.202 14.6154 176.266 28.8514 166.674 45.0212C147.259 77.7524 140.996 112.898 146.499 150.326C150.097 174.793 158.507 197.373 173.274 217.401C190.109 240.232 212.656 254.705 240.011 261.073C257.984 265.257 276.281 268.376 294.596 270.695C330.038 275.183 361.596 288.674 390.457 309.284C408.893 322.449 427.265 335.73 446.143 348.238C461.888 358.67 478.946 366.587 497.41 371.302C527.83 379.07 555.094 372.923 579.605 353.525C600.268 337.173 615.672 316.298 630.664 294.991C642.355 278.376 653.913 261.619 666.506 245.696C690.247 215.68 721.333 194.966 755.247 178.133C788.461 161.648 823.484 149.66 858.141 136.766C891.27 124.441 923.818 110.948 954.791 93.6484C983.613 77.5497 1003.63 53.8919 1017.89 24.7953C1021.53 17.3569 1024.21 9.44137 1027.16 1.37252C1027.75 1 1028.5 1 1029.62 1.00001C1026.05 10.6643 1022.69 20.6169 1018.05 29.9406C1002.17 61.8991 977.771 85.1493 945.985 101.53C910.762 119.683 873.904 133.649 836.837 147.253C806.958 158.218 777.316 169.694 748.838 184.067C705.007 206.188 670.823 238.594 644.125 279.538C630.757 300.038 616.91 320.279 599.985 338.157C587.619 351.22 573.935 362.544 557.369 369.876C533.792 380.309 509.946 378.592 486.171 370.585C459.431 361.58 436.713 345.54 413.966 329.41C396.322 316.899 378.419 304.643 359.867 293.552C337.133 279.962 311.37 275.509 285.506 271.921C266.371 269.266 247.251 266.593 228.797 260.398C195.775 249.312 172.239 227.518 157.861 196.274C138.604 154.426 136.342 111.428 152.697 68.0438C161.636 44.3295 176.249 24.1105 193.306 5.57011C194.412 4.36795 195.315 2.97882 196.156 1.33833C197.389 1 198.778 1 200.583 1Z"
                fill="#E6ECEC"
              />
              <path
                d="M1 463.4C4.31829 461.276 7.80308 459.81 10.9262 457.785C24.7601 448.817 39.3899 447.568 54.9748 452.312C74.7519 458.332 91.9807 469.013 108.33 481.205C126.094 494.45 143.715 507.902 161.044 521.708C178.984 536.001 199.103 545.33 221.266 550.869C259.318 560.378 295.634 574.287 328.513 596.011C355.442 613.804 385.193 622.455 417.029 623.972C441.483 625.136 466.001 624.906 490.486 625.47C515.251 626.041 539.78 628.246 562.916 638.122C585.243 647.652 604.412 661.355 615.968 683.198C630.001 709.722 632.383 736.961 615.977 763.57C607.856 776.743 595.487 785.736 581.239 791.053C563.953 797.503 546.031 802.23 528.488 808.015C518.383 811.347 508.202 814.684 498.544 819.089C475.013 829.824 462.637 848.922 459.114 874.187C456.531 892.704 458.469 911.098 460.44 929.506C462.253 946.439 463.716 963.463 460.528 980.327C453.846 1015.66 433.251 1040.87 402.083 1057.68C380.359 1069.4 356.31 1073.75 332.36 1078.2C330.151 1078.61 328.036 1079.53 325.939 1080.6C317.312 1081 308.625 1081 299.469 1081C314.925 1078.31 330.895 1075.86 346.762 1072.86C365.636 1069.3 384.33 1064.74 401.246 1055.3C440.436 1033.41 461.143 1000.36 459.66 954.89C459.102 937.763 456.875 920.696 455.686 903.582C454.689 889.213 455.473 874.93 459.39 860.966C465.873 837.848 481.235 822.566 503.09 814.234C518.92 808.198 535.422 803.898 551.687 799.031C565.435 794.917 578.997 790.52 591.462 783.116C620.605 765.806 629.214 736.64 622.286 706.47C615.469 676.782 596.005 657.457 569.755 644.026C546.004 631.874 520.278 628.722 494.114 628.071C470.131 627.475 446.122 627.73 422.153 626.836C387.384 625.539 354.89 616.696 325.505 597.131C293.828 576.041 258.589 562.844 221.906 553.586C198.41 547.656 177.236 537.749 158.16 522.683C137.12 506.066 115.841 489.673 93.797 474.441C82.6962 466.77 69.9466 461.24 57.4504 455.893C38.4123 447.745 20.9479 452.58 4.91789 464.518C3.85117 465.312 2.75119 466.062 1.33335 466.916C1.00001 465.933 1 464.867 1 463.4Z"
                fill="#E6ECEC"
              />
              <path
                d="M1464.38 1081C1465.01 1076.82 1466.1 1072.66 1467.01 1068.45C1479.17 1012.41 1466.77 961.709 1430.32 918.177C1387.96 867.596 1331.77 850.167 1267.27 856.652C1237.11 859.684 1210.3 872.289 1184.03 886.384C1163.47 897.416 1142.96 908.673 1120.28 914.887C1051.59 933.701 987.102 924.383 927.797 884.569C906.932 870.561 887.444 854.519 867.004 839.856C850.669 828.137 833.125 818.483 813.296 813.982C775.821 805.477 742.84 815.699 714.188 839.984C683.01 866.411 670.676 901.664 669.816 941.593C669.275 966.739 676.179 990.237 685.383 1013.37C690.165 1025.39 693.758 1037.94 697.069 1050.47C699.648 1060.22 699.326 1070.29 696.951 1080.59C696.25 1081 695.5 1081 694.375 1081C699.375 1061.4 693.681 1043.14 687.364 1024.9C681.597 1008.24 674.405 991.834 670.835 974.696C661.98 932.179 668.03 891.51 695.137 856.639C722.977 820.824 760.246 803.851 806.142 810.068C829.626 813.249 849.991 824.61 868.987 838.194C885.38 849.917 901.104 862.575 917.464 874.348C996.052 930.9 1078.63 937.045 1165.08 893.629C1185.02 883.616 1204.42 871.87 1225.35 864.639C1294.03 840.915 1358.95 849.705 1414.01 898.115C1464.61 942.594 1482.74 1000.45 1469.85 1067.21C1469 1071.6 1467.68 1075.91 1466.79 1080.63C1466.25 1081 1465.5 1081 1464.38 1081Z"
                fill="#E6ECEC"
              />
              <path
                d="M1921 468.625C1895.27 465.957 1869.48 465.319 1843.7 467.873C1821.04 470.119 1799.89 477.936 1779.55 487.679C1757.77 498.108 1736.14 508.916 1714.92 520.425C1673.62 542.826 1629.4 554.356 1582.8 558.057C1537.78 561.633 1493.57 569.101 1451.46 586.413C1416.34 600.851 1383.45 619.347 1351.6 639.882C1314.47 663.82 1288 696.682 1270.08 736.683C1266.9 743.773 1264.6 751.379 1262.87 758.969C1257.81 781.174 1265.06 797.654 1285.98 806.854C1300.65 813.307 1316.31 817.965 1331.95 821.675C1409.28 840.024 1462.22 887.207 1494.54 958.594C1505.55 982.894 1508.56 1009.24 1509.74 1035.64C1510.4 1050.43 1509.78 1065.27 1509.87 1080.55C1509.25 1081 1508.5 1081 1507.37 1081C1508.86 1053.97 1507.8 1027.08 1503.66 1000.28C1498.53 967.041 1484.61 937.632 1464.49 911.073C1437.44 875.349 1403.57 848.247 1361.19 832.82C1348.57 828.225 1335.16 825.833 1322.25 821.955C1310 818.272 1297.49 814.953 1285.88 809.724C1263.01 799.423 1254.91 781.935 1260.6 757.445C1266.84 730.581 1280.83 707.6 1297.54 686.127C1312.38 667.049 1329.75 650.746 1350.26 637.702C1380.95 618.183 1412.4 600.176 1445.97 585.981C1487.41 568.457 1530.85 559.298 1575.47 556.447C1632.53 552.8 1685.01 535.707 1734.5 507.59C1752.99 497.085 1772.56 488.397 1791.95 479.573C1822.55 465.651 1855.05 462.47 1888.23 464.094C1898.87 464.615 1909.5 465.456 1920.57 466.075C1921 466.75 1921 467.5 1921 468.625Z"
                fill="#E6ECEC"
              />
              <path
                d="M246.583 1C239.337 10.422 231.136 19.4608 224.105 29.3334C195.892 68.9521 192.587 112.508 205.101 158.157C211.156 180.242 221.979 199.771 238.613 215.81C256.719 233.27 278.998 241.798 303.309 245.892C320.229 248.741 337.257 251.025 354.08 254.352C377.904 259.063 398.431 271.228 418.527 284.233C434.885 294.818 451.18 305.538 467.974 315.397C480.964 323.021 495.187 327.911 510.235 330.042C533.84 333.386 553.799 325.424 571.547 310.451C589.316 295.46 602.539 276.635 616.195 258.115C627.654 242.575 639.216 227.055 651.669 212.317C668.69 192.173 690.434 177.89 713.636 165.775C749.12 147.248 787.375 135.875 824.956 122.764C853.306 112.874 881.048 101.686 907.462 87.1875C934.833 72.1647 953.176 49.437 966.082 21.7229C969.097 15.2494 971.335 8.41428 973.965 1.37277C974.75 1 975.5 1 976.625 1C969.242 24.1581 958.062 45.3594 941.71 63.714C928.674 78.3452 912.087 87.7899 894.988 96.5893C861.65 113.745 826.006 124.941 790.717 137.061C762.647 146.701 734.882 157.029 708.655 171.158C676.731 188.355 651.45 212.652 630.492 242.005C617.239 260.566 603.728 279.03 589.018 296.426C580.968 305.945 570.811 314.055 560.502 321.213C539.787 335.597 516.837 335.912 493.423 328.824C473.587 322.819 455.968 312.386 438.889 300.931C429.064 294.341 419.179 287.838 409.329 281.284C384.411 264.704 356.949 255.499 327.286 251.935C313.262 250.251 299.21 247.839 285.547 244.302C248.159 234.624 222.881 210.535 208.557 175.267C194.146 139.785 190.984 103.232 202.622 66.2144C209.851 43.2218 223.245 23.8034 239.203 6.02C240.397 4.68905 241.328 3.12178 242.191 1.33218C243.389 1 244.778 1 246.583 1Z"
                fill="#E6ECEC"
              />
              <path
                d="M1921 517.625C1913.79 516.856 1906.62 515.232 1899.36 514.659C1876.91 512.886 1854.41 511.888 1832.06 515.665C1807.93 519.741 1786.03 530.025 1764.32 540.712C1746.09 549.69 1728.04 559.047 1709.71 567.837C1680.46 581.868 1649.2 588.144 1617.12 591.063C1587.76 593.735 1558.32 595.747 1529.47 602.526C1483.96 613.224 1442.81 633.55 1403.48 658.312C1380.57 672.737 1360.87 690.234 1345.73 712.728C1333.24 731.275 1323.14 750.877 1319.69 773.296C1317.08 790.219 1323.02 803.315 1337.55 812.483C1351.61 821.352 1367.53 825.256 1383.28 829.499C1449.35 847.293 1494.4 889.016 1521.58 950.966C1528.88 967.606 1531.71 985.443 1533.5 1003.41C1536.05 1029.05 1535.79 1054.66 1532.06 1080.6C1531.56 1081 1531.11 1081 1530.33 1081C1530.88 1067.71 1532.25 1054.44 1532.53 1041.14C1533.08 1014.55 1531.43 988.033 1523.06 962.6C1509.04 919.991 1482.36 886.63 1446.09 860.699C1426.03 846.365 1403.68 837.287 1379.92 830.959C1367.11 827.544 1354.27 823.425 1342.31 817.789C1320.06 807.311 1312.74 790.367 1318.45 766.307C1325.78 735.454 1342.34 709.817 1363.54 686.798C1379.47 669.496 1399.46 657.699 1419.31 645.792C1460.83 620.876 1504.98 602.544 1553.18 595.557C1575.41 592.334 1597.83 590.21 1620.23 588.314C1659.7 584.972 1696.46 573.205 1731.4 554.811C1750.7 544.654 1770.44 535.296 1790.21 526.082C1818.03 513.117 1847.57 509.126 1877.95 510.997C1892.06 511.866 1906.12 513.562 1920.6 514.941C1921 515.75 1921 516.5 1921 517.625Z"
                fill="#E6ECEC"
              />
              <path
                d="M1921 744.583C1919.85 743.837 1918.48 742.826 1917.6 741.489C1887.88 696.449 1835.81 694.366 1800.44 707.01C1785.4 712.39 1770.54 718.494 1755.18 722.765C1735.58 728.213 1715.24 727.448 1695.07 727.08C1672.04 726.659 1649.07 726.877 1626.5 732.39C1603.43 738.024 1582.72 748.29 1564.71 763.789C1543.57 781.976 1538.92 815.114 1555.44 835.978C1560.98 842.978 1568.96 848.16 1576.21 853.662C1584.68 860.089 1594.36 865.104 1602.14 872.23C1623.97 892.224 1634.1 917.955 1634.33 947.177C1634.46 964.264 1633.63 981.555 1631.03 998.417C1628.07 1017.65 1632.49 1029.07 1651.31 1041.62C1666.21 1051.56 1683.52 1052.44 1700.93 1051.57C1736.94 1049.77 1766.84 1033.69 1794.94 1012.53C1816.97 995.942 1836.29 976.916 1852.64 954.78C1864.37 938.899 1878.1 924.901 1892.69 911.631C1902.29 902.903 1911.18 893.397 1920.69 884.12C1921 885.389 1921 886.778 1921 888.583C1920.04 889.441 1918.88 889.668 1918.16 890.356C1907.32 900.707 1896.1 910.716 1885.84 921.619C1873.3 934.939 1860.85 948.461 1849.64 962.888C1825.17 994.381 1794.97 1019.01 1760.17 1037.7C1731.16 1053.29 1699.81 1058.47 1667.18 1051.09C1653.19 1047.92 1642.11 1040.08 1633.58 1028.35C1627.35 1019.78 1626.79 1010.6 1628.48 1000.74C1632.18 979.281 1633.67 957.662 1631.09 936.011C1627.3 904.219 1612.3 879.19 1584.82 862.038C1577.47 857.457 1570.34 852.532 1563.23 847.593C1538.67 830.533 1536.98 788.35 1557.52 767.435C1576.39 748.222 1599.56 736.65 1625.42 730.13C1646.12 724.91 1667.26 724.097 1688.47 724.513C1709.98 724.935 1731.67 726.23 1752.64 720.756C1768.22 716.692 1783.26 710.53 1798.45 705.037C1826.33 694.948 1854.03 695.542 1881.41 706.579C1896.07 712.489 1906.7 723.593 1916.29 735.769C1917.51 737.318 1918.96 738.686 1920.65 740.069C1921 741.389 1921 742.778 1921 744.583Z"
                fill="#E6ECEC"
              />
              <path
                d="M1405.38 1081C1415.65 1042.23 1409.86 1005.57 1389.7 971.288C1365.76 930.559 1329.02 908.799 1282.87 902.16C1248.17 897.167 1215.26 903.852 1183.67 918.345C1168.22 925.428 1152.84 932.666 1137.19 939.254C1110.34 950.551 1082.19 954.716 1053.16 953.544C1005.49 951.62 964.095 933.556 926.164 905.566C911.063 894.423 895.196 884.077 878.771 875.013C819.836 842.492 758.134 875.068 736.506 922.251C721.643 954.675 720.948 987.565 732.743 1020.93C735.907 1029.87 740.245 1038.45 742.811 1047.55C745.82 1058.22 747.484 1069.27 749.866 1080.57C749.25 1081 748.5 1081 747.375 1081C745.156 1070.9 744.168 1060.54 741.276 1050.75C736.333 1034.01 728.488 1017.98 724.915 1001.02C717.312 964.912 723.434 930.392 746.677 901.254C773.521 867.604 808.963 853.136 852.131 862.2C870.137 865.981 886.107 874.879 901.263 885.058C916.753 895.461 931.829 906.487 947.414 916.743C988.616 943.855 1034.01 954.738 1083 950.297C1107.48 948.078 1130.42 940.288 1152.72 930.031C1171.76 921.271 1190.83 912.066 1210.74 905.785C1253.21 892.392 1295.3 895.287 1335 915.978C1378.33 938.562 1402.61 975.498 1410.93 1023.22C1414.27 1042.38 1412.72 1061.41 1408.01 1080.61C1407.25 1081 1406.5 1081 1405.38 1081Z"
                fill="#E6ECEC"
              />
              <path
                d="M1921 566.625C1900.84 561.924 1880.32 560.406 1859.59 559.902C1833.8 559.274 1809.69 565.508 1786.57 576.116C1768.55 584.379 1750.71 593.054 1732.95 601.869C1700.19 618.13 1665.1 624.079 1629.03 626.09C1596.53 627.902 1564.23 631.176 1532.98 641.077C1492.66 653.851 1455.44 672.845 1423.22 700.183C1398.81 720.897 1383.46 747.908 1377.71 779.786C1374.13 799.618 1380.11 813.416 1397.98 822.728C1409.27 828.609 1421.49 833.016 1433.68 836.804C1484.36 852.544 1520.4 884.979 1543.81 932.048C1556.45 957.457 1559.3 984.932 1559.88 1012.76C1560.35 1035.51 1558.19 1058.02 1552.97 1080.6C1552.25 1081 1551.5 1081 1550.38 1081C1559.45 1042.51 1560.43 1003.66 1552.31 965.014C1543.72 924.144 1520.21 892.357 1487.7 866.898C1470.27 853.249 1450.49 844.351 1429.35 838.054C1420.44 835.397 1411.59 832.228 1403.14 828.35C1377.89 816.758 1369.77 800.271 1376.41 773.3C1385.06 738.161 1404.03 709.603 1433.56 688.562C1475.36 658.768 1520.96 637.349 1572.07 629.51C1591.96 626.459 1612.1 624.48 1632.21 623.504C1673.9 621.479 1712.9 610.775 1749.71 591.107C1764.52 583.194 1780.07 576.612 1795.44 569.806C1819.11 559.33 1844.11 555.882 1869.71 557.896C1886.6 559.226 1903.37 562.012 1920.6 564.073C1921 564.75 1921 565.5 1921 566.625Z"
                fill="#E6ECEC"
              />
              <path
                d="M291.583 1C288.873 4.86729 285.739 8.72886 282.621 12.6028C266.756 32.3109 254.634 54.0209 252.685 79.5996C249.581 120.346 256.889 158.757 283.48 191.418C299.56 211.168 321.122 221.742 345.919 226.042C357.243 228.005 368.617 229.697 379.992 231.346C404.295 234.869 425.309 246.227 446.245 258.192C461.386 266.845 476.806 275.328 492.916 281.891C514.414 290.649 536.024 289.585 554.749 274.363C564.367 266.545 573.143 257.441 581.142 247.944C591.215 235.985 600.427 223.256 609.446 210.461C635.247 173.861 670.035 149.396 711.897 134.858C741.158 124.696 771.025 116.27 800.223 105.943C819.485 99.1311 838.362 91.0019 856.839 82.2535C887.215 67.8713 905.196 42.375 916.823 11.7641C918.061 8.50355 918.925 5.1006 919.981 1.38185C920.75 1 921.5 1 922.625 1C917.103 21.0472 907.934 39.3462 894.774 55.7072C879.705 74.4411 859.487 85.8829 837.815 94.1661C807.974 105.572 777.459 115.248 747.09 125.229C721.095 133.772 695.317 142.659 671.442 156.366C649.542 168.938 631.583 185.806 616.313 205.696C604.037 221.687 592.298 238.106 579.602 253.752C573.249 261.579 565.741 268.646 557.967 275.11C537.887 291.804 515.028 293.316 491.631 284.105C477.451 278.522 463.467 271.752 450.636 263.568C421.238 244.817 389.773 233.268 354.967 229.93C331.665 227.695 310.185 219.814 292.224 203.99C276.424 190.071 266.02 172.655 259.105 153.005C251.369 131.023 248.419 108.269 249.611 85.0948C251.043 57.2412 262.918 33.4939 279.907 11.9593C282.555 8.60242 284.981 5.06993 287.255 1.30932C288.389 1 289.778 1 291.583 1Z"
                fill="#E6ECEC"
              />
              <path
                d="M1921 618.625C1899.52 610.3 1877.04 607.571 1854.05 606.812C1831.32 606.061 1810.09 611.383 1789.61 620.463C1775.14 626.875 1760.79 633.565 1746.49 640.336C1719.17 653.265 1690.12 658.241 1660.24 659.565C1632.77 660.783 1605.28 661.794 1578.33 668.063C1538.03 677.44 1501.44 694.761 1470.17 721.815C1448.11 740.893 1436.41 766.076 1434.25 795.361C1433.23 809.155 1438.24 820.805 1449.96 827.832C1461.16 834.542 1473.26 840.016 1485.48 844.721C1512.3 855.056 1534.55 871.248 1552.31 893.762C1571.34 917.892 1581.82 945.251 1583.96 975.941C1585.85 1002.88 1584.37 1029.48 1578.55 1055.93C1576.84 1063.73 1577.46 1072.05 1577.01 1080.57C1576.25 1081 1575.5 1081 1574.37 1081C1572.12 1063.38 1578.94 1046.87 1580.59 1029.69C1583.41 1000.15 1584.42 970.496 1575.12 942.001C1560.93 898.505 1532.31 867.424 1490.02 849.349C1479.45 844.835 1468.55 841.049 1458.24 836.03C1437.48 825.925 1429.57 811.923 1432.31 789.784C1433.39 781.108 1435.66 772.413 1438.61 764.168C1448.12 737.673 1466.64 718.855 1489.87 703.511C1536.1 672.979 1587.12 659.508 1641.93 657.906C1666.92 657.177 1692.19 656.699 1716.08 648.697C1735.28 642.269 1753.75 633.608 1772.32 625.42C1790.02 617.615 1807.47 608.866 1826.8 606.223C1856.73 602.133 1886.3 604.224 1915.03 614.313C1916.75 614.92 1918.5 615.457 1920.62 616.013C1921 616.75 1921 617.5 1921 618.625Z"
                fill="#E6ECEC"
              />
              <path
                d="M335.6 1.00001C331.222 7.79055 326.147 14.3933 321.723 21.4066C308.181 42.8708 302.795 66.1717 305.657 91.5632C307.721 109.877 310.945 127.815 317.978 144.918C332.821 181.011 358.872 203.257 398.155 207.789C423.836 210.753 447.877 218.068 470.953 229.566C480.727 234.437 491.179 238.21 501.668 241.324C520.518 246.92 537.74 242.874 551.078 228.336C562.977 215.365 573.889 201.431 584.573 187.416C600.03 167.139 616.572 148.2 639.02 135.251C657.35 124.677 677.029 117.544 697.282 111.835C724.367 104.201 751.652 97.2272 778.536 88.9439C796.211 83.4979 813.417 76.1708 827.908 64.2949C847.767 48.0207 860.225 26.9824 865.215 1.37704C866.067 1 867.133 1 868.6 1C865.105 11.2423 861.962 21.8534 857.161 31.6516C846.467 53.4737 829.661 69.2321 807.626 79.7913C780.057 93.0026 750.636 100.22 721.33 107.99C706.367 111.958 691.475 116.265 676.737 120.999C641.533 132.307 612.971 152.916 591.145 182.884C582.419 194.866 573.393 206.641 564.156 218.232C560.128 223.286 555.41 227.838 550.684 232.277C534.235 247.728 515.05 249.048 494.781 242.034C484.577 238.504 474.534 234.298 464.849 229.522C444.907 219.687 424.121 213.23 401.96 210.924C377.373 208.367 355.387 199.842 338.053 181.407C326.074 168.667 317.785 153.73 312.5 137.196C304.515 112.211 300.016 86.7013 303.926 60.411C306.842 40.8117 316.023 23.8889 327.715 8.19171C329.298 6.06666 330.765 3.85579 332.143 1.34232C333.067 1 334.133 1 335.6 1.00001Z"
                fill="#E6ECEC"
              />
              <path
                d="M1622.42 1081C1621.25 1079.69 1620.66 1078.24 1619.71 1077.09C1617.58 1074.54 1615.21 1072.19 1613.03 1069.68C1601.87 1056.79 1598.81 1042.46 1602.56 1025.52C1608.63 998.126 1609.65 970.175 1604.11 942.592C1596.41 904.231 1574.61 875.789 1540.05 857.297C1529.78 851.801 1519.11 846.985 1509.13 841.008C1498.28 834.51 1490.65 825.13 1489.09 812.03C1487.38 797.52 1489.36 783.437 1495.05 769.947C1500.74 756.451 1509.55 745.377 1521.11 736.399C1554.47 710.515 1592.32 696.251 1634.28 693.15C1654.21 691.677 1674.21 691.217 1694.19 690.554C1721.09 689.661 1746.32 682.648 1770.81 671.642C1785.95 664.837 1801.43 657.59 1817.53 654.369C1852.8 647.31 1887.21 650.365 1918.1 671.503C1918.77 671.955 1919.6 672.148 1920.68 672.231C1921 673.067 1921 674.133 1921 675.6C1915.49 672.648 1910.15 668.986 1904.45 666.002C1886.89 656.807 1867.76 654.822 1848.32 653.722C1824.36 652.367 1802.83 660.167 1781.39 669.345C1766.41 675.756 1751.36 682.335 1735.79 686.943C1711.77 694.049 1686.72 693.494 1661.9 693.961C1629.53 694.569 1597.78 698.577 1567.77 711.687C1548.11 720.275 1529.52 730.788 1514.19 745.967C1496.59 763.406 1489.53 785.098 1491.28 809.67C1492.04 820.436 1496.91 829.505 1505.78 835.344C1515.75 841.899 1526.32 847.67 1537.06 852.892C1557.63 862.897 1574.28 877.193 1587.29 895.937C1603.28 918.96 1609.36 944.828 1609.71 972.405C1609.94 990.439 1609.64 1008.56 1604.95 1026C1599.56 1046.07 1607.43 1061.01 1620.71 1074.58C1622.68 1076.59 1624.85 1078.42 1626.96 1080.66C1625.61 1081 1624.22 1081 1622.42 1081Z"
                fill="#E6ECEC"
              />
              <path
                d="M1346.38 1081C1349.29 1069.27 1349.5 1057.29 1347.88 1045.37C1343.54 1013.54 1329.25 987.208 1303 968.195C1280.9 952.187 1255.61 945.875 1228.61 946.053C1204.92 946.209 1182.62 952.785 1160.78 961.368C1148.23 966.3 1135.7 971.339 1122.91 975.585C1089.55 986.661 1055.82 986.254 1021.93 977.912C992.143 970.581 966.318 955.199 940.919 938.775C925.362 928.715 909.14 919.924 890.973 915.241C853.548 905.593 810.838 924.202 792.433 958.229C776.797 987.136 775.358 1016.82 787.049 1047.39C791.208 1058.26 795.014 1069.26 798.991 1080.6C798.25 1081 797.5 1081 796.375 1081C794.788 1076.38 793.828 1071.68 792.315 1067.17C787.882 1053.93 781.603 1041.08 778.987 1027.51C772.749 995.143 779.785 965.204 802.315 940.596C830.982 909.284 872.287 901.387 911 919.832C928.67 928.251 945.369 938.83 962.066 949.145C996.808 970.61 1034.16 982.439 1075.23 981.4C1095.59 980.885 1115.07 976.322 1134.15 969.24C1154.57 961.655 1174.88 953.262 1195.93 947.953C1233.72 938.421 1270.15 943.06 1303.1 965.24C1325.91 980.593 1339.74 1002.61 1347.19 1028.73C1352.01 1045.66 1352.39 1062.9 1349.05 1080.6C1348.25 1081 1347.5 1081 1346.38 1081Z"
                fill="#E6ECEC"
              />
              <path
                d="M378.6 1C371.384 11.0027 365.243 21.7659 361.394 33.8215C355.956 50.8541 356.975 67.9735 359.945 85.2407C363.782 107.546 369.282 129.275 381.286 148.792C395.125 171.291 415.065 184.348 441.348 188.332C457.123 190.723 472.693 194.471 488.355 197.612C488.681 197.677 489.003 197.768 489.326 197.847C521.016 205.6 533.003 201.182 552.334 174.846C560.415 163.836 568.352 152.695 576.938 142.087C593.045 122.186 613.844 108.739 638.363 102.06C660.182 96.1162 682.453 91.7869 704.6 87.1047C726.009 82.5787 747.282 77.6823 766.654 67.0453C792.46 52.8752 806.518 30.5755 810.959 1.40102C811.75 1 812.5 1 813.625 1C811.864 8.84151 810.431 16.96 807.467 24.4748C796.712 51.7428 775.971 68.2757 748.871 77.8878C726.768 85.7274 703.705 89.2885 680.919 94.2084C663.7 97.9264 646.48 102.122 629.787 107.685C602.439 116.799 582.992 136.235 566.5 159.162C558.54 170.228 550.104 180.988 541.34 191.43C533.257 201.06 522.172 204.352 509.904 203.595C504.604 203.268 499.304 202.434 494.086 201.41C475.635 197.789 457.305 193.479 438.772 190.37C409.73 185.497 389.149 169.521 375.687 143.93C362.252 118.392 356.502 90.6905 355.081 62.1816C354.016 40.8286 361.086 21.5413 373.632 4.27C374.211 3.47296 374.635 2.56348 375.066 1.35319C376.067 1 377.133 1 378.6 1Z"
                fill="#E6ECEC"
              />
              <path
                d="M1287.38 1081C1292.72 1043.62 1267.86 1006.08 1231.41 995.879C1205.51 988.636 1180.33 991.625 1155.13 998.788C1138 1003.66 1121.02 1009.38 1103.6 1012.81C1074.07 1018.62 1045.05 1014.14 1017.33 1003.26C999.252 996.168 981.989 986.984 964.39 978.672C947.139 970.524 929.654 963.362 910.079 963.408C856.839 963.532 819.946 1016.97 838.789 1066.78C840.494 1071.29 842.326 1075.75 844.05 1080.61C843.25 1081 842.5 1081 841.375 1081C840.379 1078.82 839.973 1076.55 839.106 1074.47C826.255 1043.67 829.043 1014.46 850.311 988.617C868.764 966.194 893.83 958.253 922.394 961.795C937.255 963.638 950.956 969.475 964.366 975.888C980.28 983.498 995.838 991.952 1012.1 998.722C1052.45 1015.52 1093.38 1016.94 1135.02 1002.56C1150.37 997.263 1166.37 993.386 1182.38 990.557C1205.95 986.39 1228.95 989.461 1250.11 1001.36C1275.84 1015.82 1287.98 1038.76 1290.06 1067.59C1290.36 1071.72 1289.97 1075.91 1289.95 1080.53C1289.25 1081 1288.5 1081 1287.38 1081Z"
                fill="#E6ECEC"
              />
              <path
                d="M756.6 1C756.865 5.28926 757.178 9.64804 756.523 13.8564C752.479 39.8622 736.824 56.4376 713.172 66.2314C696.016 73.3354 677.801 75.4014 659.521 77.015C640.291 78.7125 621.022 79.9249 602.281 85.2545C581.724 91.101 565.38 102.627 553.429 120.289C547.926 128.422 542.252 136.505 537.537 145.095C523.651 170.388 500.854 174.627 477.897 169.685C456.443 165.067 442.324 151.015 432.049 132.557C420.913 112.551 415.164 90.5755 410.042 68.5164C407.385 57.0769 405.53 45.3069 404.838 33.5961C404.129 21.5908 408.612 10.7358 416.857 1.30331C417.75 1 418.5 1 419.625 1C413.311 9.49864 407.596 18.5745 407.451 29.7566C407.351 37.5337 407.469 45.5138 409.052 53.0757C414.212 77.7105 420.177 102.183 430.996 125.106C438.258 140.491 448.076 153.945 463.638 161.763C481.344 170.659 499.755 172.761 517.683 162.632C523.105 159.568 527.766 154.439 531.542 149.342C537.576 141.197 542.704 132.364 547.995 123.687C564.182 97.1463 588.516 83.3038 618.597 79.0991C639.537 76.1721 660.675 74.6708 681.636 71.8728C699.113 69.5399 716.108 64.9897 730.25 53.7616C745 42.0515 754.342 27.1787 754.239 7.60166C754.228 5.62153 753.781 3.64371 753.269 1.33241C754.067 1 755.133 1 756.6 1Z"
                fill="#E6ECEC"
              />
              <path
                d="M1855.63 1C1855.45 12.8099 1854.21 24.6361 1854.49 36.4267C1855.3 70.9941 1847.71 104.203 1839.66 137.447C1830.96 173.372 1821.82 209.241 1814.8 245.509C1808.26 279.33 1804.62 313.702 1799 347.716C1795.96 366.097 1791.36 384.217 1787.68 402.497C1786.64 407.696 1785.85 413.041 1785.8 418.327C1785.62 435.866 1795.87 447.238 1813.43 446.743C1827.29 446.351 1841.17 443.731 1854.9 441.323C1876.71 437.497 1898.41 433.023 1920.58 428.912C1921 429.444 1921 429.889 1921 430.667C1892.89 436.499 1864.84 442.316 1836.65 447.315C1827.42 448.951 1817.72 449.518 1808.41 448.698C1793.91 447.423 1784.73 437.642 1783.63 423.115C1783.11 416.254 1783.55 408.99 1785.25 402.344C1794.78 365.142 1800.44 327.26 1805.26 289.271C1811.29 241.722 1822.33 195.284 1834.2 148.965C1839.24 129.29 1844.23 109.538 1847.73 89.5548C1850.32 74.7095 1850.75 59.4524 1851.64 44.3491C1852.47 30.2225 1852.63 16.0569 1853.05 1.45421C1853.75 1 1854.5 1 1855.63 1Z"
                fill="#E6ECEC"
              />
              <path
                d="M1921 399.667C1896.49 404.837 1872.01 409.816 1847.45 414.396C1842.28 415.36 1836.8 415.34 1831.52 414.946C1816.52 413.824 1807.44 404.189 1807.07 389.177C1806.95 384.711 1807.41 380.186 1808.05 375.754C1812.43 345.768 1817.72 315.891 1821.21 285.805C1826.19 242.806 1835.73 200.819 1846.23 158.944C1851.29 138.767 1856.41 118.477 1859.33 97.9298C1862.06 78.6998 1861.77 59.0518 1863.11 39.6089C1863.63 32.1511 1864.47 24.6324 1866.14 17.3651C1867.38 11.9564 1870.19 6.90765 1872.15 1.34931C1874.04 1 1876.08 1 1878.56 1C1871.35 4.55937 1869.19 11.6854 1868.25 18.9947C1866.57 32.0308 1864.52 45.1598 1864.54 58.246C1864.62 93.4728 1856.82 127.295 1848.38 161.127C1840.29 193.605 1831.51 225.94 1827.28 259.271C1823.39 290.009 1819.23 320.714 1815 351.407C1813.88 359.484 1812 367.451 1810.62 375.495C1810.03 378.934 1809.6 382.434 1809.51 385.917C1809.06 403.035 1818.06 413.041 1835.13 412.654C1845.69 412.415 1856.28 410.331 1866.73 408.423C1884.59 405.166 1902.35 401.396 1920.58 397.92C1921 398.444 1921 398.889 1921 399.667Z"
                fill="#E6ECEC"
              />
              <path
                d="M1921 44.625C1913.39 44.2422 1905.79 43.0264 1898.16 42.829C1885.19 42.4933 1880.78 45.5981 1878.4 58.3111C1876.07 70.7132 1874.32 83.354 1873.85 95.9473C1872.85 122.527 1866.55 148.079 1859.66 173.445C1846.83 220.626 1840.58 268.749 1836.88 317.333C1836.09 327.623 1834.69 337.87 1833.43 348.119C1830.66 370.612 1840.37 381.068 1862.8 377.99C1879.44 375.708 1895.84 371.722 1912.34 368.488C1914.95 367.976 1917.56 367.426 1920.58 366.947C1921 367.75 1921 368.5 1921 369.625C1918.9 370.154 1916.76 370.096 1914.71 370.496C1897.88 373.781 1881.15 377.69 1864.23 380.365C1840.16 384.168 1828.52 373.116 1831.03 348.957C1835.05 310.212 1838.85 271.417 1844.23 232.852C1847.1 212.315 1852.42 192.033 1857.83 171.961C1866.42 140.128 1871.07 107.804 1873.15 74.9736C1873.64 67.2522 1875.76 59.5812 1877.65 52.0174C1879.38 45.1295 1884.38 41.1326 1891.36 40.8262C1898.46 40.5144 1905.61 41.1708 1912.74 41.5075C1915.22 41.6249 1917.69 42.053 1920.58 42.1696C1921 42.75 1921 43.5 1921 44.625Z"
                fill="#E6ECEC"
              />
              <path
                d="M1228.38 1081C1227.72 1061.36 1215.58 1046.48 1194.95 1040.39C1180.58 1036.14 1166.04 1035.95 1151.44 1038.66C1139.48 1040.87 1127.56 1043.25 1115.68 1045.83C1089.86 1051.43 1065.03 1047.51 1040.67 1038.48C1024.27 1032.41 1008.05 1025.81 991.413 1020.49C972.684 1014.49 953.458 1011.87 933.793 1016.24C905.253 1022.57 887.262 1046.24 888.899 1075.57C888.982 1077.07 889.031 1078.57 889.048 1080.53C888.556 1081 888.111 1081 887.333 1081C883.703 1054.62 894.749 1031.53 916.579 1019.92C932.176 1011.63 948.99 1010.6 966.191 1012.49C988.178 1014.92 1008.19 1023.79 1028.69 1031.23C1041.81 1035.99 1055.16 1040.25 1068.68 1043.69C1089.15 1048.88 1109.37 1044.82 1129.49 1040.49C1145.6 1037.03 1161.77 1032.58 1178.37 1034.99C1187.95 1036.39 1197.77 1038.75 1206.51 1042.79C1221.96 1049.93 1229.71 1063.16 1230.92 1080.59C1230.25 1081 1229.5 1081 1228.38 1081Z"
                fill="#E6ECEC"
              />
              <path
                d="M250.466 1081C249.482 1080.42 249.071 1079.55 248.429 1079.32C230.499 1072.87 220.247 1058.8 213.67 1042.18C207.808 1027.37 203.79 1011.83 199.055 996.577C197.031 990.059 195.416 983.413 193.338 976.914C179.882 934.815 150.66 905.659 114.292 883.148C81.6021 862.914 47.7892 844.562 12.6541 828.782C8.88043 827.087 5.35806 824.832 1.35956 822.919C1 822.25 1 821.5 1 820.375C7.73241 823.508 14.4069 827.132 21.2086 830.5C38.5009 839.062 56.0887 847.062 73.1061 856.135C88.6526 864.423 103.907 873.352 118.758 882.833C148.736 901.971 173.803 926.218 188.854 958.839C195.693 973.664 198.86 990.155 204.125 1005.74C209.115 1020.52 213.684 1035.57 220.228 1049.66C228.092 1066.6 241.798 1077.29 260.906 1079.92C262.049 1080.08 263.159 1080.48 264.642 1080.89C260.311 1081 255.621 1081 250.466 1081Z"
                fill="#E6ECEC"
              />
              <path
                d="M1921 84.625C1914.22 85.0523 1907.41 84.7328 1900.67 85.2695C1894.83 85.7344 1890.7 89.3764 1889.37 95.0925C1887.19 104.468 1884.7 113.891 1883.84 123.43C1881.54 148.8 1874.55 173.149 1868.33 197.625C1857.8 239.018 1855.87 281.14 1856.17 323.5C1856.28 338.539 1863.64 345.669 1878.57 343.946C1892.57 342.331 1906.34 338.801 1920.61 336.056C1921 336.75 1921 337.5 1921 338.625C1909.92 341.186 1898.86 343.489 1887.75 345.499C1883.51 346.266 1879.14 346.806 1874.86 346.682C1861.85 346.308 1854.26 339.134 1853.98 326.102C1853.66 310.971 1854.2 295.822 1854.4 280.681C1854.95 238.831 1865.68 198.762 1875.31 158.438C1879 142.963 1880.29 126.923 1882.94 111.184C1883.9 105.464 1885.42 99.8165 1887.01 94.2292C1888.95 87.4481 1893.76 83.4617 1900.65 82.7404C1907.07 82.0672 1913.59 82.2298 1920.53 82.0122C1921 82.75 1921 83.5 1921 84.625Z"
                fill="#E6ECEC"
              />
              <path
                d="M189.375 1081C189.037 1080.19 189.251 1079.35 189.085 1078.59C184.22 1056.31 178.845 1034.14 174.533 1011.76C168.45 980.181 152.41 954.518 130.605 931.486C109.842 909.555 85.8167 893.149 57.9562 881.555C41.5674 874.734 26.1019 865.704 10.1636 857.783C7.50869 856.463 4.55899 855.737 1.37275 854.868C1 854.25 1 853.5 1 852.375C9.13831 855.299 17.4742 858.186 25.3747 861.98C43.0638 870.474 60.4654 879.565 78.114 888.145C101.465 899.498 119.723 916.956 137.534 935.4C162.215 960.961 173.969 992.005 180.125 1026.13C183.4 1044.28 188.055 1062.18 192.044 1080.6C191.25 1081 190.5 1081 189.375 1081Z"
                fill="#E6ECEC"
              />
              <path
                d="M159.375 1081C157.65 1070.13 156.885 1059.15 154.804 1048.42C152.053 1034.24 148.817 1020.09 144.802 1006.22C139.01 986.201 125.963 970.487 112.581 955.087C93.5468 933.184 72.8565 913.217 46.0813 900.989C31.5714 894.363 16.5354 888.889 1.36835 882.948C1 882.25 1 881.5 1 880.375C50.5241 895.659 92.0562 922.483 123.978 964.319C140.017 985.339 150.056 1008.24 154.774 1033.79C157.613 1049.16 159.608 1064.68 161.991 1080.57C161.25 1081 160.5 1081 159.375 1081Z"
                fill="#E6ECEC"
              />
              <path
                d="M1921 123.625C1906.83 124.837 1900.05 129.145 1896.86 142.678C1889.42 174.218 1878.97 205.114 1875.5 237.528C1873.52 255.99 1874.02 274.436 1877.88 292.67C1880.98 307.345 1887.61 311.825 1902.55 309.414C1908.46 308.462 1914.3 307.105 1920.58 305.966C1921 306.75 1921 307.5 1921 308.625C1919.22 309.12 1917.41 309.079 1915.66 309.394C1911.9 310.075 1908.2 311.079 1904.43 311.704C1886.37 314.699 1878.57 309.464 1875.1 291.483C1869.58 262.892 1871.6 234.519 1878.34 206.372C1882.94 187.132 1887.67 167.921 1892.35 148.697C1892.39 148.536 1892.46 148.38 1892.49 148.217C1895.16 132.466 1903.52 122.54 1920.61 121.072C1921 121.75 1921 122.5 1921 123.625Z"
                fill="#E6ECEC"
              />
              <path
                d="M134.375 1081C130.401 1045.36 122.244 1011.55 98.2007 983.215C80.0488 961.822 61.6746 940.799 38.4757 924.65C27.1033 916.733 15.1411 909.862 1.37975 905.905C1 905.25 1 904.5 1 903.375C14.6352 906.809 26.9183 913.5 38.352 921.579C69.2039 943.377 94.2859 970.845 114.596 1002.5C125.912 1020.13 130.436 1040.48 133.915 1060.93C135.003 1067.33 135.832 1073.77 136.89 1080.6C136.25 1081 135.5 1081 134.375 1081Z"
                fill="#E6ECEC"
              />
              <path
                d="M1921 928.6C1919.61 930.001 1918 930.799 1916.85 932.033C1903.07 946.921 1892.15 963.883 1882.81 981.723C1860.75 1023.86 1828.92 1056.05 1787.02 1078.4C1786.18 1078.85 1785.54 1079.65 1784.9 1080.65C1782.63 1081 1780.26 1081 1777.44 1081C1790.14 1072.91 1803.69 1065.4 1816.35 1056.6C1843.1 1037.99 1862.57 1012.93 1878.21 984.6C1888.67 965.664 1899.74 947.084 1914.41 930.97C1916.3 928.894 1918.34 926.953 1920.65 924.975C1921 926.067 1921 927.133 1921 928.6Z"
                fill="#E6ECEC"
              />
              <path
                d="M1 928.4C8.59782 933.317 16.6199 938.125 23.7173 944.043C49.2741 965.351 71.3812 989.928 89.7686 1017.63C102.296 1036.5 108.017 1058.09 111.9 1080.61C111.25 1081 110.5 1081 109.375 1081C105.827 1056.16 98.2312 1032.74 83.445 1012.46C63.9736 985.758 42.1017 961.084 15.7693 940.77C11.3412 937.354 6.38147 934.627 1.3337 931.791C1.00001 930.933 1.00001 929.867 1 928.4Z"
                fill="#E6ECEC"
              />
              <path
                d="M1921 162.6C1919.95 163.667 1918.63 164.115 1917.89 165.033C1899.45 188.025 1889.21 214.008 1891.1 243.737C1891.57 251.069 1894.29 258.733 1897.78 265.281C1902.32 273.784 1910.56 276.952 1920.65 275.156C1921 275.75 1921 276.5 1921 277.625C1903.78 278.394 1894.18 271.045 1890.03 254.11C1885.9 237.21 1888.66 220.71 1893.6 204.5C1898.47 188.57 1906.62 174.344 1917.45 161.679C1918.3 160.684 1919.35 159.861 1920.65 158.979C1921 160.067 1921 161.133 1921 162.6Z"
                fill="#E6ECEC"
              />
              <path
                d="M1921 988.556C1919.63 990.622 1917.87 992.051 1916.94 993.896C1909.01 1009.66 1901.94 1025.92 1893.16 1041.2C1886.23 1053.24 1877.25 1064.11 1869.17 1075.5C1868.03 1077.11 1866.87 1078.71 1865.85 1080.66C1864.93 1081 1863.87 1081 1862.4 1081C1862.98 1079.53 1863.79 1077.9 1864.98 1076.63C1882.34 1058.24 1894 1036.26 1904.81 1013.72C1909.97 1002.93 1915.27 992.212 1920.75 981.231C1921 983.371 1921 985.741 1921 988.556Z"
                fill="#E6ECEC"
              />
              <path
                d="M1921 5.50004C1914.22 4.45843 1907.43 2.91684 1900.32 1.18763C1907 1 1914 1 1921 1C1921 2.38569 1921 3.69288 1921 5.50004Z"
                fill="#E6ECEC"
              />
              <path
                d="M1914.5 1081C1916.16 1076.81 1918.31 1072.61 1920.73 1068.21C1921 1072.22 1921 1076.45 1921 1081C1919.01 1081 1917 1081 1914.5 1081Z"
                fill="#E6ECEC"
              />
              <path
                d="M245.5 1013.5C239.492 1003.75 233.009 994.61 228.157 984.671C222.837 973.776 219.032 962.143 214.549 950.838C202.25 919.825 180.046 896.759 153.787 877.562C131.086 860.966 107.885 844.886 83.842 830.334C52.1317 811.143 32.4836 784.413 24.7034 748.216C16.977 712.269 9.48348 676.057 12.4683 639.326C15.1052 606.878 25.6449 575.935 49.5454 552.313C67.6872 534.383 89.8612 528.835 114.825 538.462C137.83 547.333 158.66 560.214 179.853 572.454C196.134 581.857 211.604 592.824 229.855 598.378C237.338 600.655 244.855 602.99 252.516 604.487C273.937 608.671 293.965 616.915 314.003 625.101C320.293 627.67 326.36 631.002 332.105 634.652C356.4 650.088 383.36 656.514 411.604 658.917C434.667 660.879 457.889 661.84 480.734 665.284C509.664 669.645 534.01 683.214 548.575 709.616C560.336 730.934 561.605 753.251 547.892 774.625C540.93 785.476 530.397 792.565 518.622 797.186C506.398 801.982 493.638 805.394 481.264 809.832C471.415 813.364 461.397 816.768 452.158 821.58C435.953 830.022 427.255 844.589 424.303 862.125C422.268 874.216 421.961 886.614 421.159 898.893C420.464 909.522 421.085 920.315 419.509 930.793C414.56 963.707 397.419 988.699 367.975 1004.44C342.749 1017.93 315.833 1026.52 287.107 1028.32C271.412 1029.31 256.856 1026.2 245.5 1013.5ZM131.847 548.467C126.027 545.987 120.233 543.442 114.381 541.038C89.8454 530.955 67.6651 536.67 50.4606 555.07C25.3132 581.965 14.4618 615.577 14.427 652.038C14.3973 683.096 19.8481 713.674 26.2187 744.082C33.5502 779.076 50.5312 806.8 81.6049 825.92C105.408 840.566 128.474 856.475 151.308 872.614C183.407 895.301 208.677 923.526 221.657 961.654C226.142 974.831 232.073 987.655 238.64 999.947C246.885 1015.38 259.716 1025.18 278.034 1025.83C283.016 1026.01 288.051 1025.98 293.002 1025.48C316.469 1023.07 338.672 1015.91 359.863 1005.95C392.902 990.423 412.623 964.485 417.427 928.031C418.684 918.496 418.502 908.751 418.659 899.097C418.891 884.754 419.123 870.445 422.931 856.457C428.01 837.801 438.982 823.974 456.78 816.254C466.07 812.225 475.836 809.279 485.429 805.965C496.126 802.27 507.054 799.17 517.545 794.972C528.99 790.392 539.042 783.411 546.018 772.975C558.982 753.578 557.539 725.103 542.885 704.728C529.198 685.697 510.498 673.479 487.863 669.385C465.987 665.427 443.622 663.749 421.391 662.271C387.624 660.025 355.86 652.536 326.51 634.609C304.668 621.268 280.246 613.302 255.25 607.795C233.246 602.947 212.566 595.348 193.231 583.541C173.339 571.394 152.777 560.343 131.847 548.467Z"
                fill="#E6ECEC"
              />
              <path
                d="M1098 466.982C1100.16 453.201 1102.72 439.953 1104.41 426.596C1107.83 399.689 1109.39 372.798 1100.9 346.359C1097.71 336.43 1093.9 326.801 1086.49 319.249C1076.66 309.237 1076.06 297.714 1085.51 283.791C1097.72 265.813 1115.41 253.597 1133.53 242.164C1161.85 224.287 1193.01 213.102 1224.99 203.971C1239.91 199.711 1255.16 196.097 1268.28 187.516C1292.22 171.844 1309.21 150.087 1320.57 123.997C1325.28 113.167 1329.29 101.999 1333.07 90.8025C1341.69 65.3452 1360.07 51.2053 1385.31 44.715C1411.01 38.1081 1436.89 39.3208 1462.75 43.2695C1492.88 47.872 1522.05 56.0651 1549.64 69.152C1575.07 81.2194 1595.76 98.8246 1609.74 123.668C1619.26 140.572 1623.55 158.823 1621.64 178.018C1618.59 208.677 1616.29 239.552 1610.7 269.785C1601.85 317.609 1572.19 348.18 1525.13 359.861C1499.01 366.343 1472.02 369.286 1445.48 374.123C1420.59 378.66 1395.34 381.79 1371.44 390.634C1345.6 400.2 1322.57 414.985 1300.17 430.706C1276.03 447.645 1252.47 465.436 1228.03 481.916C1208.08 495.371 1186.26 505.545 1163.18 512.591C1150.07 516.591 1136.74 516.88 1124.12 510.751C1106.21 502.047 1098.53 486.833 1098 466.982ZM1521.09 60.256C1503.03 55.6363 1485.15 50.0742 1466.87 46.6195C1440.03 41.5465 1412.9 40.2345 1386.02 47.0751C1361.88 53.2165 1343.91 66.5727 1335.71 91.0463C1334.07 95.943 1332.26 100.784 1330.51 105.643C1324.8 121.514 1318.69 137.252 1308.51 150.885C1295.4 168.459 1281.61 185.649 1260.61 194.339C1248.64 199.289 1236.15 203.047 1223.73 206.784C1189.94 216.949 1157.01 228.966 1127.53 248.968C1112.56 259.127 1098.2 270.023 1087.65 284.925C1080.74 294.686 1077.91 307.618 1088.69 318.015C1096.23 325.295 1100.06 335.139 1103.11 345.121C1113.52 379.23 1109.94 413.333 1103.21 447.472C1101.96 453.819 1100.8 460.292 1100.65 466.731C1100.14 488.749 1112.56 505.838 1132.75 511.288C1144.79 514.538 1156.64 512.701 1168.09 508.54C1193.27 499.391 1217.01 487.422 1238.89 471.856C1264.95 453.308 1290.75 434.375 1317.22 416.417C1339.21 401.495 1362.49 388.486 1388.76 382.76C1413.32 377.404 1438.16 373.242 1462.95 368.99C1486.74 364.909 1510.93 362.73 1533.94 354.894C1574.04 341.236 1599.53 313.398 1607.65 272.133C1613.48 242.469 1615.84 212.08 1618.94 181.93C1622.72 145.067 1607.74 115.88 1580.43 92.0559C1563.26 77.0702 1543.05 67.9124 1521.09 60.256Z"
                fill="#E6ECEC"
              />
              <path
                d="M1653.56 898.625C1649.85 886.658 1643.52 876.874 1634.3 868.951C1628.87 864.285 1623.54 859.498 1618.18 854.739C1608.77 846.368 1602.17 836.118 1597.85 824.323C1592.17 808.86 1596.1 795.867 1607.95 784.983C1625.11 769.214 1645.61 759.906 1668.56 758.207C1688.4 756.738 1708.48 757.39 1728.39 758.379C1751.45 759.525 1773.94 758.051 1795.94 750.61C1812.96 744.851 1830.35 743.058 1848.12 746.899C1858.4 749.12 1868.35 752.626 1875.81 759.964C1885.85 769.839 1896.39 779.803 1903.9 791.533C1918.65 814.583 1916.09 839.109 1905.22 863.21C1897.3 880.797 1883.37 892.88 1867.54 902.83C1827.37 928.074 1790.04 956.995 1754.85 988.731C1734.57 1007.03 1711.22 1014.45 1684.31 1008.88C1679.05 1007.8 1673.89 1005.31 1669.2 1002.58C1657.92 996.017 1652.96 986.421 1654.57 972.898C1656.37 957.708 1657.55 942.361 1657.62 927.076C1657.66 917.724 1655.09 908.361 1653.56 898.625ZM1606.11 836.271C1612.46 847.381 1622.04 855.549 1631.8 863.301C1651.49 878.953 1659.93 899.795 1659.99 924.107C1660.03 940.059 1658.93 956.099 1657.05 971.945C1655.39 985.828 1660.53 995.223 1672.25 1001.63C1675.59 1003.45 1679.17 1005.12 1682.84 1005.99C1706.36 1011.56 1727.93 1007.01 1746.85 992.003C1757.79 983.315 1767.56 973.13 1778.61 964.586C1806.54 942.99 1833.54 920.129 1864.06 902.021C1871.6 897.547 1878.89 892.205 1885.14 886.084C1908.04 863.669 1916.74 836.722 1907.89 805.397C1903.27 789.08 1890.97 777.728 1879.42 766.187C1868.1 754.879 1854.04 749.445 1838.25 747.871C1827.16 746.766 1816.13 746.993 1805.61 750.641C1775.72 761.009 1745.13 762.699 1713.86 760.039C1699.98 758.859 1685.84 759.02 1671.95 760.142C1649.14 761.984 1628.61 770.252 1611.12 785.406C1597.52 797.186 1594.4 810.162 1601.47 826.604C1602.78 829.661 1604.33 832.615 1606.11 836.271Z"
                fill="#E6ECEC"
              />
              <path
                d="M280.093 972.957C267.064 969.6 259.035 960.488 251.842 950.544C247.751 944.888 243.905 938.971 240.671 932.793C226.753 906.205 206.529 884.947 184.565 865.026C167.786 849.809 151.274 834.294 134.768 818.779C115.602 800.764 103.197 778.799 98.4083 752.961C94.9234 734.156 91.8268 715.216 89.9303 696.2C88.0842 677.688 92.5436 659.815 102.007 643.898C112.856 625.652 129.116 615.491 151.072 618.169C160.912 619.369 170.764 621.784 180.169 624.956C197.996 630.969 215.335 638.437 233.195 644.338C248.967 649.549 264.993 654.289 281.227 657.726C302.847 662.304 324.001 667.924 343.833 677.797C363.529 687.602 384.861 691.206 406.198 695.066C418.304 697.256 430.598 699.308 442.191 703.239C466.609 711.518 483.447 727.56 487.314 754.172C489.924 772.139 483.557 787.09 467.905 796.463C458.012 802.388 446.837 806.192 436.172 810.795C432.818 812.242 429.282 813.297 425.776 814.355C401.936 821.554 389.111 838.626 383.434 861.898C380.949 872.087 379.461 882.525 376.839 892.674C366.977 930.851 344.078 957.57 306.607 971.008C298.193 974.025 289.405 974.925 280.093 972.957ZM355.617 933.027C358.068 929.061 360.594 925.139 362.958 921.121C372.268 905.301 376.009 887.713 379.011 869.915C384.263 838.772 400.533 817.542 432.165 809.395C440.661 807.207 448.951 803.841 456.951 800.175C483.178 788.156 492.462 763.636 480.441 738.622C474.565 726.394 465.388 717.153 453.493 710.643C439.782 703.14 424.591 700.716 409.503 698.059C388.176 694.303 366.587 691.468 346.84 681.827C324.503 670.921 301.112 663.606 276.613 659.536C269.073 658.283 261.477 656.714 254.273 654.229C235.384 647.714 216.781 640.377 197.902 633.832C184.864 629.313 171.667 625.158 158.345 621.567C134.207 615.062 111.643 628.929 102.501 647.9C94.6144 664.266 90.5006 681.522 92.4583 699.733C93.9347 713.465 96.0552 727.138 98.2299 740.783C103.211 772.035 116.057 799.117 140.07 820.539C158.339 836.838 176.154 853.65 194.03 870.384C212.102 887.301 228.446 905.579 240.538 927.488C246.143 937.645 252.772 947.359 259.902 956.523C270.049 969.563 283.736 974.057 299.965 970.188C322.84 964.735 340.37 951.216 355.617 933.027Z"
                fill="#E6ECEC"
              />
              <path
                d="M1435.06 83.0419C1472.12 89.8564 1506.59 102.372 1537.56 123.246C1556.85 136.248 1570.93 153.783 1577.49 176.579C1581.05 188.945 1580.99 201.642 1579.91 214.293C1578.64 229.223 1577.77 244.273 1575.12 258.982C1569.46 290.372 1550.66 311.893 1522.12 325.259C1503.45 334.003 1483.35 337.462 1463.16 339.809C1435.86 342.98 1408.42 344.91 1381.11 347.963C1340.66 352.484 1304.19 367.034 1271.4 391.431C1250.7 406.833 1229.09 421.02 1207.74 435.541C1198.32 441.95 1188.33 447.466 1176.56 447.975C1152.79 449.003 1133.79 427.939 1135.83 402.049C1137.52 380.464 1140.1 358.943 1142.58 337.427C1144.04 324.696 1145.98 312.016 1147.87 299.338C1150.71 280.311 1160.9 265.887 1175.93 254.348C1205.68 231.507 1239.23 217.103 1275.61 208.838C1281.78 207.438 1287.96 206.018 1293.99 204.134C1318.57 196.452 1332.12 177.562 1341.61 155.369C1346.76 143.325 1350.29 130.542 1353.95 117.919C1361.02 93.5622 1370.48 84.4494 1395.82 82.0725C1408.62 80.8722 1421.68 82.5819 1435.06 83.0419ZM1234.61 223.995C1213.96 232.02 1195.04 243.064 1177.39 256.403C1162.67 267.525 1152.67 281.642 1150.24 300.184C1146.56 328.257 1143.17 356.37 1140.03 384.508C1138.98 393.893 1137.78 403.57 1138.93 412.832C1142.02 437.847 1166.6 451.78 1189.86 442.291C1195.83 439.855 1201.62 436.678 1206.96 433.053C1228.46 418.457 1250.14 404.085 1271.03 388.641C1305.62 363.063 1344.26 348.882 1386.86 344.822C1410.9 342.53 1434.99 340.634 1458.98 337.884C1480.35 335.435 1501.66 332.121 1521.4 322.857C1548.93 309.936 1567.51 289.126 1572.54 258.785C1575.83 238.982 1576.44 218.714 1577.79 198.623C1578.15 193.221 1577.37 187.599 1576.24 182.262C1571.1 157.961 1556.71 139.735 1536.9 125.817C1512.36 108.57 1484.7 97.8866 1455.91 90.0727C1436.98 84.9366 1417.79 82.1512 1398.08 83.9859C1373.85 86.2406 1363.22 94.8928 1356.55 118.028C1353.51 128.588 1350.61 139.232 1346.77 149.514C1334.87 181.406 1315.09 204.434 1279.41 210.905C1264.43 213.621 1250 219.342 1234.61 223.995Z"
                fill="#E6ECEC"
              />
              <path
                d="M1792.44 905.174C1787.28 906.753 1782.4 907.958 1777.78 909.801C1765.01 914.895 1755.67 923.518 1752.25 937.209C1744.13 969.749 1710.5 972.601 1690.2 963.344C1684.45 960.725 1680.95 956.193 1681.08 950.153C1681.27 941.561 1682.3 932.949 1683.54 924.427C1684.71 916.365 1686.5 908.388 1688.21 900.411C1690.73 888.596 1687.68 878.223 1679.92 869.291C1674.69 863.273 1668.96 857.684 1663.39 851.972C1659.32 847.804 1654.84 844.003 1651.06 839.595C1641.53 828.485 1642.09 818.799 1652.44 808.309C1661.96 798.651 1673.62 792.96 1686.69 789.802C1703.39 785.764 1720.19 787.134 1736.86 789.432C1760.89 792.745 1784.87 793.762 1809.08 791.705C1823.31 790.497 1837.44 792.049 1850.38 798.947C1879.27 814.351 1881.88 845.335 1873.49 866.497C1866.04 885.28 1851.6 895.407 1832.34 899.017C1819.26 901.468 1806.02 903.095 1792.44 905.174ZM1795.65 794.851C1780.2 794.345 1764.74 794.077 1749.31 793.266C1733.86 792.455 1718.44 790.166 1703.02 790.233C1685.04 790.311 1668.63 796.3 1655.29 808.953C1644.42 819.257 1644.13 828.145 1654.05 839.282C1656.26 841.764 1658.71 844.03 1661.09 846.362C1666.68 851.845 1672.4 857.191 1677.85 862.804C1689.03 874.314 1694.15 887.693 1690.21 903.85C1688.75 909.831 1687.53 915.886 1686.55 921.965C1685.21 930.33 1683.8 938.72 1683.2 947.155C1682.82 952.635 1684.7 957.905 1690.25 960.507C1702.91 966.452 1715.92 967.286 1729.02 962.1C1740.94 957.384 1746.8 947.641 1750.08 935.872C1754 921.761 1763.36 912.213 1776.83 907.664C1787.46 904.073 1798.73 902.309 1809.79 900.057C1819.24 898.132 1828.96 897.352 1838.24 894.863C1861.76 888.557 1875.96 867.921 1875.1 842.469C1874.31 819.296 1858.6 800.267 1834.85 796.288C1822.36 794.198 1809.36 795.192 1795.65 794.851Z"
                fill="#E6ECEC"
              />
              <path
                d="M254.633 704.577C283.307 708.401 311.627 711.63 339.757 716.065C361.477 719.489 382.092 726.633 400.255 739.626C416.366 751.15 423.461 773.596 416.012 790.112C411.388 800.364 402.115 805.664 392.679 810.295C384.173 814.47 375.238 817.787 366.423 821.31C343.677 830.4 331.871 847.254 329.68 871.526C328.876 880.431 327.46 889.443 324.917 897.989C321.313 910.104 314.105 919.38 300.431 921.494C293.296 922.597 286.568 920.887 280.875 917.031C273.335 911.923 265.977 906.33 259.403 900.045C218.146 860.599 188.278 813.827 170.853 759.4C167.839 749.984 165.778 739.973 165.222 730.127C164.315 714.066 172.511 704.604 188.202 700.951C199.249 698.378 210.373 698.654 221.507 700.067C232.416 701.452 243.301 703.016 254.633 704.577ZM179.399 775.904C197.77 825.326 227.678 866.912 265.887 902.785C270.587 907.197 275.863 911.16 281.365 914.524C296.866 924.004 312.687 919.153 320.41 902.65C322.507 898.17 324.084 893.306 325.01 888.449C326.411 881.103 326.969 873.6 327.994 866.179C330.822 845.701 340.915 830.411 360.056 821.692C365.207 819.346 370.476 817.259 375.612 814.882C383.757 811.112 392.045 807.574 399.873 803.221C405.834 799.906 411.017 795.405 413.919 788.78C420.388 774.014 414.19 753.186 399.757 742.428C381.394 728.741 360.217 721.569 337.979 718.25C298.275 712.325 258.432 707.313 218.602 702.273C207.017 700.807 195.304 700.762 184.008 704.854C173.865 708.527 168.207 715.607 167.603 726.459C167.437 729.443 167.064 732.609 167.817 735.415C171.39 748.724 175.32 761.937 179.399 775.904Z"
                fill="#E6ECEC"
              />
              <path
                d="M1417.55 120.51C1453.28 128.287 1484.55 144.248 1511.2 168.389C1529.78 185.219 1540.44 206.743 1541.13 232.278C1541.93 261.368 1527.8 282.121 1502.81 295.164C1470.74 311.902 1436.35 314.634 1401.1 308.514C1386.83 306.035 1372.7 302.723 1358.47 299.986C1335.01 295.473 1313.46 300.524 1294.9 315.258C1277.59 329.005 1261.22 343.948 1244.58 358.529C1239.08 363.35 1234.34 369.058 1228.7 373.7C1215.12 384.885 1201.96 384.88 1187.53 374.762C1174.09 365.333 1169.78 352.186 1170.7 336.499C1172.25 309.941 1184.32 288.401 1203.91 271.509C1238.94 241.304 1279.74 222.362 1325.1 213.446C1333.57 211.781 1342.37 211.709 1350.03 207.009C1361.83 199.772 1367.51 188.376 1370.28 175.542C1373.02 162.861 1374.69 149.95 1376.9 137.152C1377.32 134.699 1378.01 132.283 1378.69 129.886C1380.05 125.188 1383 122.261 1387.88 121.016C1397.62 118.533 1407.35 118.781 1417.55 120.51ZM1201.14 378.734C1208.89 381.125 1216.22 379.71 1222.52 375.059C1228.38 370.732 1234.07 365.951 1238.97 360.579C1253.3 344.867 1269.43 331.182 1286.2 318.286C1300.95 306.942 1316.69 296.456 1336.17 296.49C1348.89 296.511 1361.72 298.306 1374.29 300.531C1393.13 303.867 1411.61 309.391 1431 308.962C1455.05 308.43 1478.54 305.148 1500.22 293.923C1532.31 277.318 1545.74 246.585 1535.69 212.609C1530.01 193.391 1519.29 177.37 1503.63 164.785C1484.76 149.621 1463.82 138.038 1441.17 129.634C1426.07 124.032 1410.59 120.09 1394.23 122.26C1384.06 123.61 1381.8 125.724 1379.69 135.665C1378.96 139.082 1378.6 142.576 1377.93 146.008C1375.44 158.735 1373.83 171.729 1370.15 184.103C1364.97 201.496 1352.99 212.687 1334.45 214.667C1314.99 216.744 1296.52 222.005 1278.72 229.746C1252.84 240.998 1227.44 253.149 1206.36 272.536C1190.28 287.318 1178.41 304.471 1174.37 326.533C1169.51 353.058 1177.58 369.686 1201.14 378.734Z"
                fill="#E6ECEC"
              />
            </g>
          </svg>